<svg width="101" height="100" viewBox="0 0 101 100" fill="none" xmlns="http://www.w3.org/2000/svg">
<path d="M50.4998 97.4293C76.6944 97.4293 97.9293 76.1944 97.9293 49.9998C97.9293 23.8052 76.6944 2.57031 50.4998 2.57031C24.3052 2.57031 3.07031 23.8052 3.07031 49.9998C3.07031 76.1944 24.3052 97.4293 50.4998 97.4293Z" fill="white" stroke="#D1D1D1"/>
<path d="M50.2733 91.4215C73.2749 91.4215 91.9215 72.7749 91.9215 49.7733C91.9215 26.7716 73.2749 8.125 50.2733 8.125C27.2716 8.125 8.625 26.7716 8.625 49.7733C8.625 72.7749 27.2716 91.4215 50.2733 91.4215Z" stroke="#D1D1D1"/>
<path d="M50.4795 33.1292C50.4795 32.9319 50.64 32.7715 50.8371 32.7715C51.0342 32.7715 51.1947 32.9319 51.1947 33.1292C51.1947 33.3267 51.0342 33.4871 50.8371 33.4871C50.64 33.4871 50.4795 33.3267 50.4795 33.1292Z" fill="#009B3E" stroke="#009B3E"/>
<path d="M26.8954 38.0256V37.4484L26.32 37.4026C24.1158 37.227 22.375 35.377 22.375 33.1291V27.2327C22.375 27.0351 22.5352 26.875 22.7327 26.875H71.0809C71.2784 26.875 71.4386 27.0351 71.4386 27.2327V33.1291C71.4386 35.377 69.6979 37.2271 67.4936 37.4026L66.9183 37.4484V38.0256V42.9564C66.9183 46.5325 65.9635 50.0416 64.1583 53.1044C62.4056 56.0775 59.8999 58.5629 56.9129 60.2909L56.9165 60.2971L56.912 60.2913C54.0071 61.9785 50.54 62.9686 46.9067 62.9686C43.4026 62.9686 39.9571 62.05 36.9399 60.3131L36.9387 60.3124L36.9241 60.304L36.9202 60.3019L36.8687 60.2721L36.8681 60.2719C30.8904 56.7988 26.8954 50.3314 26.8954 42.9564V38.0256ZM36.9539 60.3224C36.9572 60.3246 36.9586 60.3256 36.9566 60.3243L36.9539 60.3224ZM56.0474 59.9539L56.376 59.7769V59.4036V50.8181C56.376 45.5961 52.1287 41.3486 46.9067 41.3486C41.6849 41.3486 37.4376 45.5961 37.4376 50.8181V59.4036V59.7769L37.7662 59.9539C40.5618 61.4596 43.7089 62.2531 46.9067 62.2531C50.1049 62.2531 53.252 61.4596 56.0474 59.9539ZM57.0914 58.18V59.3925L58.079 58.689C63.1299 55.0913 66.2029 49.2181 66.2029 42.9564V38.0428V37.4178H65.5779H28.2358H27.6108V38.0428V42.9564C27.6108 49.2181 30.6838 55.0913 35.7346 58.689L36.7222 59.3925V58.18V50.8181C36.7222 45.2028 41.2916 40.6331 46.9067 40.6331C52.522 40.6331 57.0914 45.2028 57.0914 50.8181V58.18ZM70.0983 32.7714H70.7233V32.1464V28.2155V27.5905H70.0983H23.7154H23.0904V28.2155V33.1291C23.0904 35.0999 24.6926 36.7022 26.6635 36.7022H26.6929H26.723H26.7536H26.7849H26.8168H26.8492H26.8824H26.916H26.9504H26.9852H27.0208H27.0567H27.0934H27.1306H27.1685H27.2069H27.2459H27.2854H27.3255H27.3663H27.4075H27.4493H27.4916H27.5346H27.5781H27.6222H27.6668H27.712H27.7576H27.804H27.8507H27.8981H27.946H27.9944H28.0432H28.0927H28.1428H28.1933H28.2444H28.2959H28.348H28.4006H28.4538H28.5074H28.5615H28.6161H28.6713H28.727H28.7831H28.8398H28.8969H28.9545H29.0126H29.0713H29.1302H29.1899H29.2499H29.3104H29.3714H29.4329H29.4948H29.5571H29.62H29.6834H29.7471H29.8114H29.876H29.9412H30.0068H30.0729H30.1392H30.2062H30.2736H30.3414H30.4096H30.4782H30.5474H30.6169H30.6869H30.7571H30.828H30.8991H30.9708H31.0428H31.1153H31.1881H31.2612H31.335H31.409H31.4835H31.5582H31.6335H31.7091H31.7851H31.8615H31.9383H32.0155H32.093H32.1709H32.2491H32.3278H32.4069H32.4863H32.5659H32.646H32.7265H32.8073H32.8885H32.97H33.0519H33.134H33.2166H33.2995H33.3827H33.4662H33.5501H33.6344H33.719H33.8039H33.889H33.9745H34.0604H34.1465H34.233H34.3197H34.4069H34.4943H34.582H34.6699H34.7583H34.8469H34.9357H35.0249H35.1144H35.2041H35.2941H35.3844H35.475H35.5659H35.657H35.7484H35.8401H35.932H36.0242H36.1168H36.2094H36.3024H36.3956H36.4891H36.5829H36.6769H36.771H36.8655H36.9602H37.0551H37.1504H37.2458H37.3414H37.4373H37.5333H37.6296H37.7261H37.8229H37.9199H38.017H38.1144H38.212H38.3098H38.4078H38.5059H38.6042H38.7029H38.8016H38.9006H38.9998H39.0991H39.1986H39.2983H39.3981H39.4983H39.5984H39.6987H39.7994H39.9001H40.001H40.102H40.2031H40.3045H40.406H40.5077H40.6095H40.7114H40.8135H40.9157H41.0181H41.1206H41.2233H41.326H41.4289H41.5319H41.635H41.7383H41.8416H41.9451H42.0487H42.1525H42.2562H42.3603H42.4642H42.5684H42.6726H42.7769H42.8814H42.9859H43.0905H43.1951H43.2999H43.4047H43.5096H43.6146H43.7198H43.8249H43.93H44.0354H44.1406H44.2461H44.3515H44.457H44.5626H44.6682H44.7739H44.8796H44.9854H45.0911H45.197H45.3029H45.4087H45.5147H45.6206H45.7266H45.8326H45.9388H46.0447H46.1509H46.2569H46.363H46.4691H46.5752H46.6814H46.7875H46.8936H46.9996H47.1057H47.2119H47.318H47.424H47.5301H47.6361H47.7421H47.8481H47.9541H48.0601H48.166H48.2719H48.3778H48.4835H48.5893H48.695H48.8006H48.9062H49.0119H49.1174H49.2229H49.3282H49.4336H49.5389H49.6441H49.7492H49.8544H49.9594H50.0644H50.1693H50.274H50.3786H50.4832H50.5878H50.6923H50.7966H50.9009H51.005H51.109H51.213H51.3169H51.4206H51.5243H51.6277H51.7311H51.8344H51.9375H52.0406H52.1435H52.2463H52.349H52.4515H52.5539H52.6561H52.7582H52.8602H52.9621H53.0637H53.1652H53.2666H53.3679H53.469H53.5699H53.6706H53.7713H53.8716H53.9719H54.072H54.1719H54.2716H54.3713H54.4706H54.5697H54.6687H54.7676H54.8661H54.9646H55.0629H55.1609H55.2588H55.3564H55.4538H55.551H55.648H55.7448H55.8414H55.9378H56.0339H56.1297H56.2254H56.3209H56.4161H56.5111H56.6059H56.7004H56.7946H56.8886H56.9825H57.076H57.1693H57.2624H57.3551H57.4476H57.5399H57.6319H57.7236H57.8151H57.9062H57.9972H58.0879H58.1783H58.2684H58.3581H58.4476H58.5369H58.6259H58.7145H58.8029H58.8909H58.9788H59.0661H59.1533H59.2401H59.3266H59.4129H59.4989H59.5844H59.6696H59.7546H59.8393H59.9235H60.0075H60.0911H60.1745H60.2574H60.34H60.4224H60.5042H60.5859H60.6671H60.748H60.8285H60.9087H60.9885H61.068H61.1471H61.2259H61.3041H61.3821H61.4597H61.537H61.6139H61.6904H61.7665H61.8421H61.9175H61.9924H62.0669H62.141H62.2147H62.2881H62.361H62.4336H62.5057H62.5774H62.6488H62.7196H62.79H62.86H62.9296H62.9989H63.0676H63.136H63.2039H63.2712H63.3382H63.4049H63.471H63.5368H63.602H63.6668H63.7311H63.795H63.8584H63.9214H63.9839H64.0459H64.1075H64.1685H64.2291H64.2894H64.349H64.4081H64.4669H64.5251H64.5829H64.6401H64.6969H64.7531H64.8089H64.8641H64.9189H64.9731H65.0269H65.0801H65.1328H65.185H65.2367H65.2879H65.3385H65.3886H65.4382H65.4873H65.5359H65.5839H65.6312H65.6783H65.7246H65.7704H65.8158H65.8604H65.9046H65.9482H65.9914H66.0339H66.0758H66.1171H66.158H66.1982H66.2379H66.277H66.3155H66.3535H66.3909H66.4276H66.4639H66.4995H66.5345H66.5689H66.6027H66.636H66.6686H66.7006H66.732H66.7629H66.793H66.8226H66.8515H66.8799H66.9076H66.9347H66.9613H66.987H67.0123H67.0369H67.0607H67.0841H67.1068H67.1288H67.1501C68.7082 36.7022 70.0284 35.6921 70.5182 34.3109L70.814 33.477H69.9292H54.7682C54.5626 33.477 54.4106 33.3185 54.4106 33.1291C54.4106 32.9315 54.5708 32.7714 54.7682 32.7714H70.0983Z" fill="#009B3E" stroke="#009B3E"/>
<path d="M40.6523 50.8185C40.6523 47.3706 43.4583 44.5645 46.9061 44.5645C50.3538 44.5645 53.16 47.3706 53.16 50.8185C53.16 54.2665 50.3538 57.0725 46.9061 57.0725C43.4583 57.0725 40.6523 54.2665 40.6523 50.8185ZM41.3677 50.8185C41.3677 53.873 43.8516 56.3571 46.9061 56.3571C49.9606 56.3571 52.4446 53.873 52.4446 50.8185C52.4446 47.764 49.9606 45.28 46.9061 45.28C43.8516 45.28 41.3677 47.764 41.3677 50.8185Z" fill="#009B3E" stroke="#009B3E"/>
<path d="M44.583 50.8174C44.583 49.5369 45.6258 48.4941 46.9061 48.4941C48.1864 48.4941 49.2291 49.5369 49.2291 50.8174C49.2291 52.0979 48.1864 53.1406 46.9061 53.1406C45.6258 53.1406 44.583 52.0979 44.583 50.8174ZM45.2984 50.8174C45.2984 51.7044 46.019 52.4251 46.9061 52.4251C47.7931 52.4251 48.5138 51.7044 48.5138 50.8174C48.5138 49.9304 47.7931 49.2096 46.9061 49.2096C46.019 49.2096 45.2984 49.9304 45.2984 50.8174Z" fill="#009B3E" stroke="#009B3E"/>
<path d="M78.0001 62.6959C78.0001 69.6095 72.3957 75.2141 65.4825 75.2141C58.5692 75.2141 52.9648 69.6095 52.9648 62.6959C52.9648 55.7822 58.5692 50.1777 65.4825 50.1777C72.3957 50.1777 78.0001 55.7822 78.0001 62.6959Z" fill="white" stroke="#009B3E" stroke-width="2"/>
<path d="M71.4386 57.466C71.0014 57.0685 70.3215 57.0997 69.9219 57.539L63.3693 64.7547L60.2036 61.5363C59.7858 61.113 59.1069 61.1065 58.6848 61.5234C58.2615 61.9392 58.2551 62.619 58.6719 63.0423L62.6345 67.0707C62.8376 67.2769 63.1125 67.3919 63.4004 67.3919C63.4069 67.3919 63.4144 67.3919 63.4209 67.3929C63.7173 67.3865 63.9966 67.2598 64.1953 67.0407L71.5116 58.9839C71.9101 58.5434 71.8779 57.8645 71.4386 57.466Z" fill="#009B3E"/>
<path d="M97.206 49.9995C97.206 75.7948 76.2948 96.706 50.4995 96.706C24.7041 96.706 3.79294 75.7948 3.79294 49.9995C3.79294 24.2041 24.7041 3.29294 50.4995 3.29294C76.2948 3.29294 97.206 24.2041 97.206 49.9995ZM50.4995 98.6786C77.3843 98.6786 99.1786 76.8843 99.1786 49.9995C99.1786 23.1148 77.3843 1.32031 50.4995 1.32031C23.6148 1.32031 1.82031 23.1148 1.82031 49.9995C1.82031 76.8843 23.6148 98.6786 50.4995 98.6786Z" fill="#009B3E" stroke="#009B3E"/>
</svg>
