<svg width="100" height="100" viewBox="0 0 100 100" fill="none" xmlns="http://www.w3.org/2000/svg">
<g clip-path="url(#clip0_8214_15222)">
<path d="M50.0001 92.9611C73.7279 92.9611 92.963 73.7259 92.963 49.9981C92.963 26.2703 73.7279 7.03516 50.0001 7.03516C26.2723 7.03516 7.03711 26.2703 7.03711 49.9981C7.03711 73.7259 26.2723 92.9611 50.0001 92.9611Z" stroke="#D1D1D1"/>
<path d="M98.1479 50.0007C98.1479 76.5926 76.5916 98.1489 49.9997 98.1489C23.4083 98.1489 1.8516 76.5926 1.8516 50.0007C1.8516 23.4092 23.4083 1.85258 49.9997 1.85258C76.5916 1.85258 98.1479 23.4092 98.1479 50.0007ZM49.9997 99.6304C77.4094 99.6304 99.6294 77.4104 99.6294 50.0007C99.6294 22.591 77.4094 0.371094 49.9997 0.371094C22.59 0.371094 0.370117 22.591 0.370117 50.0007C0.370117 77.4104 22.59 99.6304 49.9997 99.6304Z" fill="#159822" stroke="#159822"/>
<path fill-rule="evenodd" clip-rule="evenodd" d="M48.8887 109.628V99.2578H51.1109V109.628H48.8887Z" fill="#159822"/>
<path d="M53.4845 40.6055H34.0416C33.6222 40.6055 33.2822 40.9455 33.2822 41.3649C33.2822 41.7844 33.6222 42.1244 34.0416 42.1244H53.4845C53.904 42.1244 54.244 41.7843 54.244 41.3649C54.244 40.9455 53.904 40.6055 53.4845 40.6055Z" fill="#159822"/>
<path d="M53.4845 45.9414H34.0416C33.6222 45.9414 33.2822 46.2815 33.2822 46.7009C33.2822 47.1202 33.6222 47.4603 34.0416 47.4603H53.4845C53.904 47.4603 54.244 47.1202 54.244 46.7009C54.244 46.2815 53.904 45.9414 53.4845 45.9414Z" fill="#159822"/>
<path d="M53.4845 51.2773H34.0416C33.6222 51.2773 33.2822 51.6174 33.2822 52.0368C33.2822 52.4562 33.6222 52.7962 34.0416 52.7962H53.4845C53.904 52.7962 54.244 52.4562 54.244 52.0368C54.244 51.6174 53.904 51.2773 53.4845 51.2773Z" fill="#159822"/>
<path d="M54.244 57.3728C54.244 56.9533 53.904 56.6133 53.4845 56.6133H34.0416C33.6222 56.6133 33.2822 56.9534 33.2822 57.3728C33.2822 57.7921 33.6222 58.1322 34.0416 58.1322H53.4845C53.904 58.1322 54.244 57.7922 54.244 57.3728Z" fill="#159822"/>
<path d="M34.0416 64.4375C33.6222 64.4375 33.2822 64.7776 33.2822 65.197C33.2822 65.6163 33.6222 65.9564 34.0416 65.9564H43.7879C44.2074 65.9564 44.5474 65.6163 44.5474 65.197C44.5474 64.7776 44.2074 64.4375 43.7879 64.4375H34.0416Z" fill="#159822"/>
<path d="M62.237 31.628V29.1636C62.237 28.2248 61.4733 27.4609 60.5344 27.4609H44.9417C44.003 27.4609 43.2393 28.2248 43.2393 29.1636V31.628C43.2393 32.5667 44.003 33.3304 44.9417 33.3304H46.2585C46.6779 33.3304 47.0179 32.9903 47.0179 32.571C47.0179 32.1515 46.6779 31.8115 46.2585 31.8115H44.9417C44.8406 31.8115 44.7582 31.7292 44.7582 31.628V29.1636C44.7582 29.0624 44.8406 28.98 44.9417 28.98H60.5344C60.6357 28.98 60.7181 29.0623 60.7181 29.1636V31.628C60.7181 31.7291 60.6357 31.8115 60.5344 31.8115H49.8091C49.3896 31.8115 49.0497 32.1515 49.0497 32.5709C49.0497 32.9903 49.3896 33.3303 49.8091 33.3303H60.5345C61.4733 33.3306 62.237 32.5667 62.237 31.628Z" fill="#159822"/>
<path d="M67.9153 68.5344C67.4958 68.5344 67.1558 68.8745 67.1558 69.2939V70.3167C67.1558 71.5511 66.1515 72.5555 64.9169 72.5555H31.3183C30.0839 72.5555 29.0794 71.5512 29.0794 70.3167V33.8112C29.0794 33.6468 29.0987 33.4855 29.1331 33.3287H36.0483C37.492 33.3287 38.6666 32.1541 38.6666 30.7104V23.7952C38.8234 23.7609 38.9846 23.7416 39.1489 23.7416H64.9168C66.1513 23.7416 67.1557 24.746 67.1557 25.9805V36.0918C67.1557 36.5112 67.4957 36.8512 67.9152 36.8512C68.3346 36.8512 68.6746 36.5112 68.6746 36.0918V25.9804C68.6748 23.9084 66.9889 22.2227 64.9169 22.2227H39.1491C38.1454 22.2227 37.2016 22.6135 36.4919 23.3233L28.6611 31.1541C27.9514 31.8638 27.5605 32.8074 27.5605 33.8112V70.3167C27.5605 72.3888 29.2462 74.0745 31.3183 74.0745H64.9169C66.9889 74.0745 68.6748 72.3887 68.6748 70.3167V69.294C68.6748 68.8745 68.3348 68.5344 67.9153 68.5344ZM37.1477 24.8156V30.7104C37.1477 31.3166 36.6545 31.8098 36.0483 31.8098H30.1536L37.1477 24.8156Z" fill="#159822"/>
<path d="M78.3179 49.3638C78.8505 48.5813 78.989 47.616 78.6964 46.7155C78.4038 45.815 77.7246 45.1152 76.8335 44.7956C76.2424 44.5835 75.8476 44.0407 75.829 43.4127C75.8001 42.4664 75.3446 41.6044 74.5779 41.0477C73.8123 40.4913 72.8514 40.3242 71.9428 40.5894C71.3394 40.7654 70.7017 40.558 70.3173 40.0613C69.7378 39.3123 68.8624 38.8828 67.9155 38.8828C66.9687 38.8828 66.0932 39.3123 65.5138 40.0613C65.1293 40.5581 64.4912 40.7652 63.8883 40.5894C62.9796 40.3241 62.0188 40.4913 61.2527 41.0477C60.4867 41.6044 60.031 42.4663 60.0023 43.4127C59.9833 44.0406 59.589 44.5833 58.9976 44.7955C58.1064 45.115 57.4274 45.815 57.1349 46.7154C56.8424 47.6159 56.9803 48.5813 57.5134 49.3637C57.867 49.8829 57.867 50.5538 57.5134 51.0729C56.9803 51.8554 56.8424 52.8207 57.1349 53.7212C57.4274 54.6217 58.1064 55.3215 58.9976 55.6412C59.589 55.8533 59.9834 56.3961 60.0023 57.024C60.0287 57.8945 60.4276 58.7125 61.097 59.268C61.5387 59.6346 62.0693 59.864 62.6245 59.9407V66.8554C62.6245 67.4388 62.941 67.9781 63.4503 68.2626C63.959 68.5468 64.5844 68.5341 65.0815 68.2281L67.867 66.5133C67.9124 66.4853 67.9395 66.4978 67.9644 66.5133L70.7498 68.2281C71.2467 68.5338 71.8719 68.547 72.3811 68.2624C72.8905 67.9779 73.2069 67.4386 73.2069 66.8553V59.9404C73.7619 59.8638 74.2927 59.6345 74.7342 59.268C75.4038 58.7125 75.8024 57.8947 75.829 57.0238C75.8483 56.396 76.2424 55.8532 76.8335 55.6411C77.7253 55.3215 78.4038 54.6216 78.6964 53.721C78.989 52.8205 78.8512 51.8553 78.3179 51.0727C77.9638 50.5539 77.9638 49.883 78.3179 49.3638ZM71.5459 66.9346L68.7604 65.2199C68.2427 64.9011 67.5888 64.9006 67.0705 65.2199L64.2851 66.9344C64.2217 66.973 64.1434 66.9286 64.1434 66.8553V59.7964C64.6656 59.736 65.1833 59.9484 65.5138 60.3755C66.0933 61.1243 66.9687 61.5538 67.9156 61.5538C68.8624 61.5538 69.7378 61.1243 70.3173 60.3755C70.6478 59.9484 71.1656 59.736 71.6877 59.7964V66.8553C71.6877 66.9291 71.6084 66.9732 71.5459 66.9346ZM77.0624 51.9283C77.329 52.3194 77.3979 52.8018 77.2513 53.2518C77.1053 53.7019 76.7661 54.0517 76.3209 54.2116C75.1372 54.6358 74.3483 55.7218 74.3105 56.9781C74.2972 57.4198 74.1031 57.8178 73.764 58.0992C73.3829 58.4155 72.8668 58.5347 72.3684 58.3893C71.1618 58.0373 69.8851 58.4521 69.1158 59.446C68.8263 59.8202 68.3887 60.035 67.9155 60.035C67.4423 60.035 67.0047 59.8204 66.715 59.446C66.1277 58.6869 65.2444 58.2656 64.3226 58.2656C64.0372 58.2656 63.7479 58.306 63.4627 58.3893C62.9595 58.5359 62.4449 58.413 62.0668 58.0991C61.7278 57.8178 61.5337 57.4196 61.5204 56.9781C61.4824 55.7218 60.6935 54.6358 59.5103 54.2114C59.0649 54.0516 58.7256 53.7019 58.5793 53.2518C58.433 52.8018 58.5019 52.3193 58.7684 51.9282C59.4761 50.8895 59.4761 49.5473 58.7684 48.5085C58.5019 48.1174 58.433 47.635 58.5793 47.1848C58.7255 46.7347 59.0649 46.385 59.5103 46.2253C60.6935 45.8008 61.4824 44.7148 61.5204 43.4585C61.5347 42.9855 61.7624 42.5547 62.1453 42.2766C62.528 41.9984 63.0081 41.915 63.4627 42.0474C64.6688 42.3996 65.9459 41.9846 66.715 40.9907C67.0046 40.6164 67.4421 40.4017 67.9155 40.4017C68.3887 40.4017 68.8262 40.6163 69.1158 40.9906C69.885 41.9846 71.1615 42.3994 72.3682 42.0474C72.8225 41.9147 73.3026 41.9983 73.6855 42.2765C74.0684 42.5546 74.2964 42.9855 74.3105 43.4584C74.3483 44.7147 75.1372 45.8008 76.3209 46.2251C76.7661 46.3848 77.1053 46.7347 77.2513 47.1847C77.3979 47.6347 77.329 48.1173 77.0624 48.5083C76.355 49.5472 76.355 50.8896 77.0624 51.9283Z" fill="#159822"/>
<path d="M67.9152 43.8516C64.4053 43.8516 61.5498 46.707 61.5498 50.217C61.5498 53.7269 64.4053 56.5824 67.9152 56.5824C71.4251 56.5824 74.2803 53.7269 74.2803 50.217C74.2803 46.707 71.4251 43.8516 67.9152 43.8516ZM67.9152 55.0635C65.2428 55.0635 63.0687 52.8893 63.0687 50.217C63.0687 47.5447 65.2428 45.3705 67.9152 45.3705C70.5876 45.3705 72.7617 47.5447 72.7617 50.217C72.7617 52.8895 70.5875 55.0635 67.9152 55.0635Z" fill="#159822"/>
</g>
<defs>
<clipPath id="clip0_8214_15222">
<rect width="100" height="100" fill="white"/>
</clipPath>
</defs>
</svg>
