<svg width="100" height="100" viewBox="0 0 100 100" fill="none" xmlns="http://www.w3.org/2000/svg">
<g clip-path="url(#clip0_8211_14911)">
<path d="M49.9998 97.4293C76.1944 97.4293 97.4293 76.1944 97.4293 49.9998C97.4293 23.8052 76.1944 2.57031 49.9998 2.57031C23.8052 2.57031 2.57031 23.8052 2.57031 49.9998C2.57031 76.1944 23.8052 97.4293 49.9998 97.4293Z" fill="white" stroke="#D1D1D1"/>
<path d="M49.9998 91.6481C73.0015 91.6481 91.6481 73.0015 91.6481 49.9998C91.6481 26.9981 73.0015 8.35156 49.9998 8.35156C26.9981 8.35156 8.35156 26.9981 8.35156 49.9998C8.35156 73.0015 26.9981 91.6481 49.9998 91.6481Z" stroke="#D1D1D1"/>
<path d="M96.706 49.9995C96.706 75.7948 75.7948 96.706 49.9995 96.706C24.2041 96.706 3.29294 75.7948 3.29294 49.9995C3.29294 24.2041 24.2041 3.29294 49.9995 3.29294C75.7948 3.29294 96.706 24.2041 96.706 49.9995ZM49.9995 98.6786C76.8843 98.6786 98.6786 76.8843 98.6786 49.9995C98.6786 23.1148 76.8843 1.32031 49.9995 1.32031C23.1148 1.32031 1.32031 23.1148 1.32031 49.9995C1.32031 76.8843 23.1148 98.6786 49.9995 98.6786Z" fill="#159822" stroke="#159822"/>
<path d="M76.8327 60.3139L73.0017 56.4831C74.3701 54.0286 75.1562 51.2074 75.1562 48.2031C75.1562 38.7902 67.4988 31.1327 58.0859 31.1327C54.1526 31.1327 50.5363 32.4831 47.6469 34.7264H37.6679C39.1657 33.4084 40.1172 31.4832 40.1172 29.3359C40.1172 25.3728 36.8927 22.1484 32.9297 22.1484C28.9666 22.1484 25.7422 25.3728 25.7422 29.3359C25.7422 31.5982 26.7951 33.6169 28.4347 34.9358C24.8409 35.7571 22.1484 38.9734 22.1484 42.8124V48.2031C22.1484 51.0457 24.0459 53.4517 26.6406 54.2271V74.2577C26.6406 76.2397 28.2523 77.8514 30.2343 77.8514C31.3124 77.8514 32.2702 77.3646 32.9297 76.6098C33.5891 77.3646 34.5468 77.8514 35.6249 77.8514C37.6069 77.8514 39.2187 76.2397 39.2187 74.2577V72.8328L46.7782 65.2734L45.8797 64.3749L48.1779 62.0767C50.0413 63.4118 52.1768 64.3866 54.4922 64.8852V69.5688L56.6627 70.1106L55.5118 72.0296L60.3158 76.8336L62.2331 75.6818L62.7748 77.8514H69.5688L70.1106 75.6809L72.0278 76.8327L76.8318 72.0287L75.6809 70.1097L77.8514 69.5688V62.7748L75.6809 62.2331L76.8327 60.3139ZM73.3593 48.2031C73.3593 56.6251 66.5078 63.4764 58.0859 63.4764C49.6639 63.4764 42.8124 56.6251 42.8124 48.2031C42.8124 39.7811 49.6639 32.9297 58.0859 32.9297C66.5078 32.9297 73.3593 39.7811 73.3593 48.2031ZM70.6639 66.1718C70.6639 68.6488 68.6488 70.6639 66.1718 70.6639C63.6948 70.6639 61.6797 68.6488 61.6797 66.1718C61.6797 65.7082 61.7713 65.2617 61.9078 64.8259C64.1323 64.3147 66.1879 63.3687 67.9884 62.0803C69.6012 62.7954 70.6639 64.3821 70.6639 66.1718ZM41.0156 59.5108L39.2187 61.3077V54.4922H39.6679C40.5358 54.4922 41.3228 54.1382 41.8924 53.5677C42.4369 55.2073 43.2257 56.7328 44.2122 58.1111L41.9139 60.4092L41.0156 59.5108ZM41.0156 48.2031C41.0156 48.3127 41.0299 48.4187 41.0317 48.5274C40.6176 48.3262 40.1584 48.2031 39.6679 48.2031H39.2187V42.3632C39.2187 41.6202 39.8233 41.0156 40.5663 41.0156H42.6238C41.6032 43.2033 41.0156 45.6336 41.0156 48.2031ZM33.7912 43.3758L32.9297 44.2373L32.0681 43.3758L32.7338 36.5234H33.1246L33.7912 43.3758ZM27.5389 29.3359C27.5389 26.3629 29.9567 23.9452 32.9297 23.9452C35.9026 23.9452 38.3202 26.3629 38.3202 29.3359C38.3202 32.3088 35.9026 34.7264 32.9297 34.7264C29.9567 34.7264 27.5389 32.3088 27.5389 29.3359ZM30.2343 36.5234H30.9288L30.1974 44.0459L32.9297 46.7782L35.6618 44.0459L34.9304 36.5234H45.6713C44.8941 37.3491 44.2014 38.2511 43.5986 39.2187H40.5663C38.8323 39.2187 37.4218 40.6292 37.4218 42.3632V48.2031H29.3359C28.8408 48.2031 28.4374 47.8006 28.4374 47.3047V41.0156H26.6406V46.4062H23.9452V42.8124C23.9452 39.3453 26.7663 36.5234 30.2343 36.5234ZM23.9452 48.2031H26.8059C27.1778 49.2462 28.1661 49.9999 29.3359 49.9999H39.6679C40.4109 49.9999 41.0156 50.6046 41.0156 51.3476C41.0156 52.0906 40.4109 52.6952 39.6679 52.6952H28.4374C25.9604 52.6952 23.9452 50.6801 23.9452 48.2031ZM35.6249 76.0547C34.6339 76.0547 33.8281 75.2487 33.8281 74.2577V58.0859H32.0312V74.2577C32.0312 75.2487 31.2253 76.0547 30.2343 76.0547C29.2433 76.0547 28.4374 75.2487 28.4374 74.2577V54.4922H37.4218V74.2577C37.4218 75.2487 36.6159 76.0547 35.6249 76.0547ZM39.2187 70.2921V63.8484L41.0156 62.0516L44.2373 65.2734L39.2187 70.2921ZM44.6093 63.1046L43.1844 61.6797L45.3424 59.5216C45.7889 60.0247 46.2642 60.4991 46.7673 60.9464L44.6093 63.1046ZM76.0547 64.1782V68.1654L74.3036 68.6021L73.8238 68.7872L73.4052 69.8104L74.5696 71.7502L71.7502 74.5696L69.8114 73.4061L68.7153 73.8517L68.1654 76.0547H64.1782L63.7407 74.3036L63.5583 73.8229L62.5322 73.4061L60.5934 74.5696L57.7741 71.7502L58.9384 69.8104L58.4893 68.7144L56.2889 68.1654V65.1772C56.8802 65.2392 57.4786 65.2734 58.0859 65.2734C58.7238 65.2734 59.3508 65.2321 59.9708 65.1638C59.9169 65.4953 59.8827 65.8304 59.8827 66.1718C59.8827 69.6389 62.7038 72.4609 66.1718 72.4609C69.6398 72.4609 72.4609 69.6389 72.4609 66.1718C72.4609 63.9688 71.3082 61.9896 69.4997 60.8593C70.4367 60.0131 71.2821 59.0706 72.0143 58.0373L74.5696 60.5926L73.4052 62.5322L73.8571 63.6283L76.0547 64.1782Z" fill="#159822"/>
<path d="M77.8514 26.6406C77.8514 24.1636 75.8363 22.1484 73.3593 22.1484H69.7656C67.2886 22.1484 65.2734 24.1636 65.2734 26.6406V31.1327H73.3593C75.8363 31.1327 77.8514 29.1176 77.8514 26.6406ZM67.0702 26.6406C67.0702 25.1546 68.2796 23.9452 69.7656 23.9452H73.3593C74.8453 23.9452 76.0547 25.1546 76.0547 26.6406C76.0547 28.1266 74.8453 29.3359 73.3593 29.3359H67.0702V26.6406Z" fill="#159822"/>
<path d="M68.8672 25.7422H70.6639V27.5389H68.8672V25.7422Z" fill="#159822"/>
<path d="M72.4609 25.7422H74.2577V27.5389H72.4609V25.7422Z" fill="#159822"/>
<path d="M58.086 61.6798C65.5169 61.6798 71.5625 55.6342 71.5625 48.2032C71.5625 40.7722 65.5169 34.7266 58.086 34.7266C50.655 34.7266 44.6094 40.7722 44.6094 48.2032C44.6094 55.6342 50.655 61.6798 58.086 61.6798ZM53.5938 52.6953H55.3906V59.5567C54.7725 59.4103 54.1696 59.2234 53.5938 58.9817V52.6953ZM51.7969 58.0294C51.1518 57.6152 50.5499 57.1408 50 56.6117V47.3048H51.7969V58.0294ZM57.1875 59.8371V40.1173H58.9844V59.8371C58.687 59.8604 58.3896 59.8828 58.086 59.8828C57.7822 59.8828 57.4849 59.8604 57.1875 59.8371ZM60.7812 49.1016H62.5781V58.9817C62.0023 59.2226 61.3994 59.4094 60.7812 59.5567V49.1016ZM66.1719 56.6117C65.622 57.1408 65.0201 57.6152 64.375 58.0294V45.5078H66.1719V56.6117ZM58.086 36.5236C64.526 36.5236 69.7656 41.7632 69.7656 48.2032C69.7656 50.4807 69.1007 52.6011 67.9688 54.3988V43.7111H62.5781V47.3048H60.7812V38.3203H55.3906V50.8986H53.5938V45.5078H48.2031V54.3988C47.0711 52.6002 46.4062 50.4798 46.4062 48.2032C46.4062 41.7632 51.646 36.5236 58.086 36.5236Z" fill="#159822"/>
</g>
<defs>
<clipPath id="clip0_8211_14911">
<rect width="100" height="100" fill="white"/>
</clipPath>
</defs>
</svg>
