<svg width="101" height="100" viewBox="0 0 101 100" fill="none" xmlns="http://www.w3.org/2000/svg">
<g clip-path="url(#clip0_8217_15689)">
<path d="M50.1666 97.4293C76.3612 97.4293 97.5961 76.1944 97.5961 49.9998C97.5961 23.8052 76.3612 2.57031 50.1666 2.57031C23.972 2.57031 2.73706 23.8052 2.73706 49.9998C2.73706 76.1944 23.972 97.4293 50.1666 97.4293Z" fill="white" stroke="#D1D1D1"/>
<path d="M50.1666 91.6481C73.1683 91.6481 91.8148 73.0015 91.8148 49.9998C91.8148 26.9981 73.1683 8.35156 50.1666 8.35156C27.1649 8.35156 8.51831 26.9981 8.51831 49.9998C8.51831 73.0015 27.1649 91.6481 50.1666 91.6481Z" stroke="#D1D1D1"/>
<path d="M96.8728 49.9995C96.8728 75.7948 75.9615 96.706 50.1663 96.706C24.3709 96.706 3.45969 75.7948 3.45969 49.9995C3.45969 24.2041 24.3709 3.29294 50.1663 3.29294C75.9615 3.29294 96.8728 24.2041 96.8728 49.9995ZM50.1663 98.6786C77.051 98.6786 98.8454 76.8843 98.8454 49.9995C98.8454 23.1148 77.051 1.32031 50.1663 1.32031C23.2815 1.32031 1.48706 23.1148 1.48706 49.9995C1.48706 76.8843 23.2815 98.6786 50.1663 98.6786Z" fill="#159822" stroke="#159822"/>
<path d="M76.9994 60.3139L73.1684 56.4831C74.5368 54.0286 75.3229 51.2074 75.3229 48.2031C75.3229 38.7902 67.6656 31.1327 58.2527 31.1327C54.3193 31.1327 50.7031 32.4831 47.8137 34.7264H37.8347C39.3324 33.4084 40.2839 31.4832 40.2839 29.3359C40.2839 25.3728 37.0594 22.1484 33.0964 22.1484C29.1333 22.1484 25.9089 25.3728 25.9089 29.3359C25.9089 31.5982 26.9618 33.6169 28.6014 34.9358C25.0077 35.7571 22.3152 38.9734 22.3152 42.8124V48.2031C22.3152 51.0457 24.2127 53.4517 26.8073 54.2271V74.2577C26.8073 76.2397 28.4191 77.8514 30.4011 77.8514C31.4792 77.8514 32.4369 77.3646 33.0964 76.6098C33.7558 77.3646 34.7136 77.8514 35.7917 77.8514C37.7737 77.8514 39.3854 76.2397 39.3854 74.2577V72.8328L46.9449 65.2734L46.0464 64.3749L48.3447 62.0767C50.2081 63.4118 52.3436 64.3866 54.6589 64.8852V69.5688L56.8294 70.1106L55.6786 72.0296L60.4826 76.8336L62.3998 75.6818L62.9416 77.8514H69.7356L70.2773 75.6809L72.1946 76.8327L76.9986 72.0287L75.8477 70.1097L78.0182 69.5688V62.7748L75.8477 62.2331L76.9994 60.3139ZM73.5261 48.2031C73.5261 56.6251 66.6746 63.4764 58.2527 63.4764C49.8307 63.4764 42.9792 56.6251 42.9792 48.2031C42.9792 39.7811 49.8307 32.9297 58.2527 32.9297C66.6746 32.9297 73.5261 39.7811 73.5261 48.2031ZM70.8307 66.1718C70.8307 68.6488 68.8156 70.6639 66.3386 70.6639C63.8616 70.6639 61.8464 68.6488 61.8464 66.1718C61.8464 65.7082 61.9381 65.2617 62.0746 64.8259C64.2991 64.3147 66.3547 63.3687 68.1552 62.0803C69.7679 62.7954 70.8307 64.3821 70.8307 66.1718ZM41.1823 59.5108L39.3854 61.3077V54.4922H39.8347C40.7026 54.4922 41.4896 54.1382 42.0592 53.5677C42.6037 55.2073 43.3924 56.7328 44.3789 58.1111L42.0807 60.4092L41.1823 59.5108ZM41.1823 48.2031C41.1823 48.3127 41.1967 48.4187 41.1984 48.5274C40.7843 48.3262 40.3252 48.2031 39.8347 48.2031H39.3854V42.3632C39.3854 41.6202 39.9901 41.0156 40.7331 41.0156H42.7906C41.7699 43.2033 41.1823 45.6336 41.1823 48.2031ZM33.9579 43.3758L33.0964 44.2373L32.2348 43.3758L32.9006 36.5234H33.2913L33.9579 43.3758ZM27.7057 29.3359C27.7057 26.3629 30.1234 23.9452 33.0964 23.9452C36.0693 23.9452 38.4869 26.3629 38.4869 29.3359C38.4869 32.3088 36.0693 34.7264 33.0964 34.7264C30.1234 34.7264 27.7057 32.3088 27.7057 29.3359ZM30.4011 36.5234H31.0956L30.3642 44.0459L33.0964 46.7782L35.8286 44.0459L35.0972 36.5234H45.8381C45.0608 37.3491 44.3682 38.2511 43.7653 39.2187H40.7331C38.9991 39.2187 37.5886 40.6292 37.5886 42.3632V48.2031H29.5027C29.0076 48.2031 28.6042 47.8006 28.6042 47.3047V41.0156H26.8073V46.4062H24.1119V42.8124C24.1119 39.3453 26.9331 36.5234 30.4011 36.5234ZM24.1119 48.2031H26.9727C27.3446 49.2462 28.3328 49.9999 29.5027 49.9999H39.8347C40.5777 49.9999 41.1823 50.6046 41.1823 51.3476C41.1823 52.0906 40.5777 52.6952 39.8347 52.6952H28.6042C26.1272 52.6952 24.1119 50.6801 24.1119 48.2031ZM35.7917 76.0547C34.8007 76.0547 33.9948 75.2487 33.9948 74.2577V58.0859H32.1979V74.2577C32.1979 75.2487 31.3921 76.0547 30.4011 76.0547C29.4101 76.0547 28.6042 75.2487 28.6042 74.2577V54.4922H37.5886V74.2577C37.5886 75.2487 36.7827 76.0547 35.7917 76.0547ZM39.3854 70.2921V63.8484L41.1823 62.0516L44.4041 65.2734L39.3854 70.2921ZM44.7761 63.1046L43.3512 61.6797L45.5092 59.5216C45.9557 60.0247 46.4309 60.4991 46.9341 60.9464L44.7761 63.1046ZM76.2214 64.1782V68.1654L74.4703 68.6021L73.9906 68.7872L73.5719 69.8104L74.7363 71.7502L71.9169 74.5696L69.9782 73.4061L68.8821 73.8517L68.3322 76.0547H64.3449L63.9074 74.3036L63.7251 73.8229L62.6989 73.4061L60.7602 74.5696L57.9408 71.7502L59.1052 69.8104L58.6561 68.7144L56.4557 68.1654V65.1772C57.0469 65.2392 57.6453 65.2734 58.2527 65.2734C58.8906 65.2734 59.5176 65.2321 60.1376 65.1638C60.0837 65.4953 60.0494 65.8304 60.0494 66.1718C60.0494 69.6389 62.8706 72.4609 66.3386 72.4609C69.8066 72.4609 72.6277 69.6389 72.6277 66.1718C72.6277 63.9688 71.4749 61.9896 69.6664 60.8593C70.6034 60.0131 71.4488 59.0706 72.1811 58.0373L74.7363 60.5926L73.5719 62.5322L74.0238 63.6283L76.2214 64.1782Z" fill="#159822"/>
<path d="M78.0182 26.6406C78.0182 24.1636 76.0031 22.1484 73.5261 22.1484H69.9323C67.4553 22.1484 65.4402 24.1636 65.4402 26.6406V31.1327H73.5261C76.0031 31.1327 78.0182 29.1176 78.0182 26.6406ZM67.2369 26.6406C67.2369 25.1546 68.4463 23.9452 69.9323 23.9452H73.5261C75.0121 23.9452 76.2214 25.1546 76.2214 26.6406C76.2214 28.1266 75.0121 29.3359 73.5261 29.3359H67.2369V26.6406Z" fill="#159822"/>
<path d="M69.0339 25.7422H70.8307V27.5389H69.0339V25.7422Z" fill="#159822"/>
<path d="M72.6277 25.7422H74.4244V27.5389H72.6277V25.7422Z" fill="#159822"/>
<path d="M58.2527 61.6798C65.6836 61.6798 71.7292 55.6342 71.7292 48.2032C71.7292 40.7722 65.6836 34.7266 58.2527 34.7266C50.8217 34.7266 44.7761 40.7722 44.7761 48.2032C44.7761 55.6342 50.8217 61.6798 58.2527 61.6798ZM53.7605 52.6953H55.5574V59.5567C54.9392 59.4103 54.3364 59.2234 53.7605 58.9817V52.6953ZM51.9636 58.0294C51.3185 57.6152 50.7166 57.1408 50.1667 56.6117V47.3048H51.9636V58.0294ZM57.3542 59.8371V40.1173H59.1511V59.8371C58.8537 59.8604 58.5564 59.8828 58.2527 59.8828C57.949 59.8828 57.6516 59.8604 57.3542 59.8371ZM60.948 49.1016H62.7449V58.9817C62.169 59.2226 61.5661 59.4094 60.948 59.5567V49.1016ZM66.3386 56.6117C65.7887 57.1408 65.1869 57.6152 64.5417 58.0294V45.5078H66.3386V56.6117ZM58.2527 36.5236C64.6927 36.5236 69.9324 41.7632 69.9324 48.2032C69.9324 50.4807 69.2675 52.6011 68.1355 54.3988V43.7111H62.7449V47.3048H60.948V38.3203H55.5574V50.8986H53.7605V45.5078H48.3699V54.3988C47.2379 52.6002 46.573 50.4798 46.573 48.2032C46.573 41.7632 51.8127 36.5236 58.2527 36.5236Z" fill="#159822"/>
</g>
<defs>
<clipPath id="clip0_8217_15689">
<rect width="100" height="100" fill="white" transform="translate(0.166748)"/>
</clipPath>
</defs>
</svg>
