<svg width="101" height="100" viewBox="0 0 101 100" fill="none" xmlns="http://www.w3.org/2000/svg">
<g clip-path="url(#clip0_8217_15670)">
<path d="M50.8331 97.4293C77.0277 97.4293 98.2626 76.1944 98.2626 49.9998C98.2626 23.8052 77.0277 2.57031 50.8331 2.57031C24.6385 2.57031 3.40356 23.8052 3.40356 49.9998C3.40356 76.1944 24.6385 97.4293 50.8331 97.4293Z" fill="white" stroke="#D1D1D1"/>
<path d="M50.8331 91.6481C73.8348 91.6481 92.4813 73.0015 92.4813 49.9998C92.4813 26.9981 73.8348 8.35156 50.8331 8.35156C27.8314 8.35156 9.18481 26.9981 9.18481 49.9998C9.18481 73.0015 27.8314 91.6481 50.8331 91.6481Z" stroke="#D1D1D1"/>
<path d="M97.5393 49.9995C97.5393 75.7948 76.628 96.706 50.8328 96.706C25.0374 96.706 4.12619 75.7948 4.12619 49.9995C4.12619 24.2041 25.0374 3.29294 50.8328 3.29294C76.628 3.29294 97.5393 24.2041 97.5393 49.9995ZM50.8328 98.6786C77.7175 98.6786 99.5119 76.8843 99.5119 49.9995C99.5119 23.1148 77.7175 1.32031 50.8328 1.32031C23.948 1.32031 2.15356 23.1148 2.15356 49.9995C2.15356 76.8843 23.948 98.6786 50.8328 98.6786Z" fill="#159822" stroke="#159822"/>
<path d="M75.558 47.2341L74.069 41.278C74.4761 41.1915 74.7815 40.8303 74.7815 40.3976V39.4373C74.7815 37.3522 73.0853 35.656 71.0003 35.656H64.218V33.6752C64.218 32.6491 63.3833 31.8145 62.3573 31.8145H27.7851C26.7591 31.8145 25.9245 32.6491 25.9245 33.6752V50.0008C25.9245 50.4981 26.3276 50.9012 26.8249 50.9012C27.322 50.9012 27.7253 50.4982 27.7253 50.0008V33.6752C27.7253 33.6421 27.752 33.6152 27.7851 33.6152H62.3571C62.3903 33.6152 62.4171 33.6421 62.4171 33.6752V50.0011C62.4171 50.4983 62.8203 50.9015 63.3175 50.9015C63.8146 50.9015 64.2179 50.4985 64.2179 50.0011V48.9805H74.8384C74.8393 48.9805 74.84 48.9807 74.8408 48.9807C74.8416 48.9807 74.8424 48.9806 74.8433 48.9806C76.1501 48.9815 77.2598 49.8393 77.641 51.0213H74.8414C74.3443 51.0213 73.9411 51.4243 73.9411 51.9216V53.8423C73.9411 55.3978 75.2065 56.6632 76.762 56.6632H77.7825V60.6246H75.4282C74.655 58.3916 72.5323 56.7832 70.0398 56.7832C67.5471 56.7832 65.4244 58.3916 64.6511 60.6246H64.2176V53.8422C64.2176 53.345 63.8145 52.9418 63.3173 52.9418C62.8201 52.9418 62.4169 53.3448 62.4169 53.8422V60.6243H43.7375C42.9641 58.3915 40.8415 56.783 38.3489 56.783C35.8563 56.783 33.7335 58.3915 32.9603 60.6243H27.7851C27.752 60.6243 27.7253 60.5975 27.7253 60.5643V58.5837H31.6266C32.1238 58.5837 32.5269 58.1806 32.5269 57.6833C32.5269 57.1861 32.1239 56.783 31.6266 56.783H22.9836C22.4864 56.783 22.0833 57.1861 22.0833 57.6833C22.0833 58.1806 22.4863 58.5837 22.9836 58.5837H25.9246V60.5643C25.9246 61.5905 26.7593 62.4251 27.7853 62.4251H32.6485C32.6484 62.4451 32.647 62.465 32.647 62.485C32.647 65.6291 35.2049 68.187 38.3489 68.187C41.4929 68.187 44.0509 65.6291 44.0509 62.485C44.0509 62.4648 44.0495 62.4451 44.0493 62.4251H64.3394C64.3391 62.4451 64.3378 62.465 64.3378 62.485C64.3378 65.6291 66.8958 68.187 70.0398 68.187C73.1836 68.187 75.7416 65.6291 75.7416 62.485C75.7416 62.4648 75.7402 62.4451 75.7401 62.4251H78.6828C79.18 62.4251 79.5831 62.022 79.5831 61.5247V51.9215C79.5833 49.5505 77.8339 47.5805 75.558 47.2341ZM64.218 37.4566H71.0003C72.0924 37.4566 72.981 38.3451 72.981 39.4373V39.4972H64.218V37.4566ZM64.218 47.18V41.2978H72.218L73.6885 47.18H64.218ZM38.3489 66.3866C36.1978 66.3866 34.4475 64.6366 34.4475 62.4852C34.4475 60.334 36.1978 58.5838 38.3489 58.5838C40.5001 58.5838 42.2502 60.334 42.2502 62.4852C42.2502 64.6366 40.5001 66.3866 38.3489 66.3866ZM70.0399 66.3866C67.8888 66.3866 66.1386 64.6366 66.1386 62.4852C66.1386 60.334 67.8888 58.5838 70.0399 58.5838C72.1911 58.5838 73.9413 60.334 73.9413 62.4852C73.9413 64.6366 72.1911 66.3866 70.0399 66.3866ZM77.7826 54.8626H76.7622C76.1996 54.8626 75.7419 54.4048 75.7419 53.8422V52.8217H77.7825V54.8626H77.7826Z" fill="#159822"/>
<path d="M38.3491 60.625C37.3231 60.625 36.4885 61.4596 36.4885 62.4857C36.4885 63.5117 37.3231 64.3464 38.3491 64.3464C39.3753 64.3464 40.2099 63.5117 40.2099 62.4857C40.2099 61.4596 39.3753 60.625 38.3491 60.625Z" fill="#159822"/>
<path d="M70.0406 60.625C69.0146 60.625 68.1799 61.4596 68.1799 62.4857C68.1799 63.5117 69.0146 64.3464 70.0406 64.3464C71.0666 64.3464 71.9012 63.5117 71.9012 62.4857C71.9012 61.4596 71.0666 60.625 70.0406 60.625Z" fill="#159822"/>
<path d="M59.4761 56.7812H46.0315C45.5342 56.7812 45.1311 57.1842 45.1311 57.6816C45.1311 58.1789 45.5341 58.5819 46.0315 58.5819H59.4761C59.9732 58.5819 60.3765 58.1789 60.3765 57.6816C60.3765 57.1842 59.9734 56.7812 59.4761 56.7812Z" fill="#159822"/>
<path d="M36.4275 52.9414H24.9035C24.4064 52.9414 24.0032 53.3444 24.0032 53.8418C24.0032 54.339 24.4063 54.742 24.9035 54.742H36.4275C36.9248 54.742 37.3279 54.339 37.3279 53.8418C37.3279 53.3444 36.9248 52.9414 36.4275 52.9414Z" fill="#159822"/>
<path d="M53.39 40.7206C53.0385 40.3691 52.4684 40.3691 52.1169 40.7208L44.1104 48.7271L39.9454 44.562C39.5938 44.2104 39.0237 44.2104 38.6722 44.562C38.3205 44.9136 38.3205 45.4836 38.6722 45.8353L43.4739 50.637C43.6497 50.8128 43.88 50.9006 44.1104 50.9006C44.3408 50.9006 44.5713 50.8128 44.747 50.637L53.3899 41.994C53.7415 41.6423 53.7415 41.0723 53.39 40.7206Z" fill="#159822"/>
</g>
<defs>
<clipPath id="clip0_8217_15670">
<rect width="100" height="100" fill="white" transform="translate(0.833252)"/>
</clipPath>
</defs>
</svg>
