<svg width="100" height="100" viewBox="0 0 100 100" fill="none" xmlns="http://www.w3.org/2000/svg">
<g clip-path="url(#clip0_8214_15159)">
<path d="M50.0001 92.9611C73.7279 92.9611 92.963 73.7259 92.963 49.9981C92.963 26.2703 73.7279 7.03516 50.0001 7.03516C26.2723 7.03516 7.03711 26.2703 7.03711 49.9981C7.03711 73.7259 26.2723 92.9611 50.0001 92.9611Z" stroke="#D1D1D1"/>
<path d="M98.1479 50.0007C98.1479 76.5926 76.5916 98.1489 49.9997 98.1489C23.4083 98.1489 1.8516 76.5926 1.8516 50.0007C1.8516 23.4092 23.4083 1.85258 49.9997 1.85258C76.5916 1.85258 98.1479 23.4092 98.1479 50.0007ZM49.9997 99.6304C77.4094 99.6304 99.6294 77.4104 99.6294 50.0007C99.6294 22.591 77.4094 0.371094 49.9997 0.371094C22.59 0.371094 0.370117 22.591 0.370117 50.0007C0.370117 77.4104 22.59 99.6304 49.9997 99.6304Z" fill="#159822" stroke="#159822"/>
<path fill-rule="evenodd" clip-rule="evenodd" d="M48.8887 109.628V99.2578H51.1109V109.628H48.8887Z" fill="#159822"/>
<path d="M48.1337 59.8497C47.7437 59.5635 47.1949 59.647 46.9083 60.0373L46.8001 60.1846C46.5138 60.5745 46.5971 61.1225 46.9866 61.4094C47.143 61.5247 47.3253 61.5804 47.5059 61.5804C47.7746 61.5804 48.0399 61.4573 48.2116 61.2246L48.3215 61.0752C48.608 60.685 48.5239 60.1363 48.1337 59.8497Z" fill="#159822"/>
<path d="M48.3626 68.1906L46.1079 64.0909L48.213 61.2238C48.4997 60.8336 48.4155 60.2849 48.0252 59.9983C47.635 59.7116 47.0864 59.7958 46.7998 60.1861L44.3634 63.5043C44.1614 63.7795 44.1375 64.1466 44.3018 64.4457L46.8264 69.0355V69.0354C46.9861 69.3255 47.286 69.4897 47.5953 69.4897C47.7382 69.4896 47.8831 69.4547 48.017 69.3811C48.4412 69.1478 48.5959 68.6148 48.3626 68.1906Z" fill="#159822"/>
<path d="M54.8965 63.5063L52.4699 60.2016C52.2687 59.9276 51.9277 59.7944 51.5942 59.8605C51.2606 59.9259 50.9952 60.1785 50.9127 60.5082C50.8495 60.7613 50.9022 61.0293 51.0567 61.2397L53.1514 64.0928L50.9122 68.1647C50.841 68.294 50.8037 68.4398 50.8037 68.5876C50.8037 68.9877 51.0747 69.3371 51.4622 69.4367C51.5349 69.4554 51.6081 69.4644 51.6804 69.4644C51.9942 69.4644 52.2917 69.295 52.4485 69.0102L54.9579 64.4478C55.1225 64.1485 55.0984 63.7813 54.8965 63.5063Z" fill="#159822"/>
<path d="M56.2862 49.7295C55.9978 49.5781 55.6493 49.5988 55.381 49.7837C54.8595 50.1429 54.3756 50.5235 53.9427 50.9147C51.5835 53.0475 49.342 52.7589 49.2542 52.7463C49.2013 52.738 49.1476 52.7342 49.0945 52.7359C48.162 52.7598 46.4808 51.9078 44.7024 50.511C44.4304 50.2974 44.1515 50.0939 43.873 49.9059C43.6044 49.7245 43.2573 49.7061 42.9711 49.8583C42.6848 50.0105 42.5059 50.3082 42.5059 50.6325V53.6399C42.5059 53.9058 42.6269 54.1572 42.8343 54.3236C42.8588 54.3434 42.8843 54.3616 42.9107 54.3785L49.1269 58.5323C49.1279 58.5329 49.1288 58.5337 49.1299 58.5344L49.1463 58.5453C49.2926 58.6422 49.4613 58.691 49.6305 58.691C49.7728 58.691 49.9153 58.6565 50.0453 58.587C50.0728 58.5723 50.0991 58.5562 50.1244 58.539C50.1274 58.5371 50.1304 58.5351 50.1334 58.5331C50.1368 58.5309 50.1403 58.5285 50.1437 58.5262L56.3453 54.3822C56.3702 54.3664 56.3945 54.3494 56.4179 54.3311C56.6307 54.1651 56.755 53.9102 56.755 53.6402V50.5056C56.755 50.1798 56.5746 49.8811 56.2862 49.7295ZM55.0016 53.171L49.6304 56.7601L44.2592 53.1709V52.3736C45.567 53.324 47.491 54.4898 49.0592 54.4896C49.0625 54.4896 49.0661 54.4896 49.0694 54.4896C49.5959 54.5479 52.281 54.7062 55.0018 52.3193V53.171H55.0016Z" fill="#159822"/>
<path d="M50.4948 57.67C50.437 57.3223 50.1764 57.0431 49.8335 56.9613C49.4904 56.8799 49.1321 57.0111 48.9235 57.2953L46.9084 60.0399C46.6218 60.4302 46.7059 60.9789 47.0963 61.2654C47.2525 61.3802 47.4342 61.4356 47.6144 61.4356C47.884 61.4356 48.1499 61.3115 48.3219 61.0774L50.3264 58.3473C50.4404 58.1982 50.5069 58.0127 50.5069 57.8144C50.5067 57.7662 50.5027 57.7176 50.4948 57.67Z" fill="#159822"/>
<path d="M62.9858 29.4075C62.9684 29.2702 62.5577 26.3063 59.7679 25.137C59.8489 24.6165 59.8404 23.9475 59.5099 23.2966C59.0657 22.4219 58.1892 21.8518 56.9046 21.602C56.8494 21.5913 56.7936 21.5859 56.7374 21.5859H44.9707C40.1928 21.5859 36.3057 25.473 36.3057 30.251V34.8682C36.3057 36.0711 36.7157 37.2442 37.4601 38.1711C37.8291 38.6306 38.2837 39.4332 38.3522 40.6467C38.3789 41.1205 38.7755 41.4865 39.2522 41.4733C39.7266 41.46 40.1041 41.0715 40.1041 40.597V34.5773C40.6994 32.1155 42.7311 31.6364 43.0803 31.5717H46.8864C47.3341 31.5717 47.7743 31.5033 48.1951 31.3685C48.9188 31.1363 50.067 30.7091 50.9029 30.3916C51.4621 30.179 52.0813 30.1713 52.6461 30.3698L56.7208 31.8002C58.7577 32.5516 59.1213 34.3399 59.1664 34.6208V41.8453C59.1664 42.3042 59.5201 42.6849 59.9777 42.719C60 42.7207 60.0219 42.7216 60.0437 42.7216C60.4737 42.7215 60.845 42.4064 60.9101 41.9747C60.9136 41.9521 61.2636 39.691 62.3923 37.8806C62.7851 37.2504 62.9928 36.5319 62.9928 35.8027V29.5182C62.9928 29.4812 62.9905 29.4442 62.9858 29.4075ZM61.2394 35.8023C61.2394 36.1939 61.1289 36.5824 60.9197 36.9279V34.5609C60.9197 34.5292 60.9179 34.4976 60.9145 34.4662C60.9007 34.3389 60.5385 31.3345 57.3194 30.152C57.3155 30.1506 57.3116 30.1492 57.3076 30.1478L53.2269 28.7152C52.7667 28.5536 52.2854 28.4731 51.8043 28.4731C51.287 28.4731 50.77 28.5663 50.2802 28.7526C49.1099 29.1972 48.2036 29.5245 47.6596 29.6988C47.4122 29.7782 47.152 29.8185 46.8863 29.8185H43.0094C42.9719 29.8185 42.9342 29.8209 42.8969 29.8256C42.7485 29.8449 39.2518 30.3422 38.3718 34.2862C38.3579 34.3489 38.3508 34.4129 38.3508 34.4771V36.2814C38.1599 35.8402 38.0588 35.3584 38.0588 34.8683V30.2513C38.0588 26.4402 41.1595 23.3395 44.9705 23.3395H56.6488C57.1323 23.4425 57.7199 23.6539 57.9428 24.0839C58.2157 24.6102 57.9049 25.3349 57.9046 25.3355C57.7924 25.5739 57.7937 25.8502 57.9077 26.0876C58.0217 26.3251 58.2366 26.4987 58.4929 26.5604C60.7247 27.0976 61.1799 29.2382 61.2393 29.5845V35.8023H61.2394Z" fill="#159822"/>
<path d="M60.9144 34.4657C60.9007 34.3385 60.5384 31.3341 57.3194 30.1516C57.3155 30.1502 57.3116 30.1488 57.3076 30.1474L53.2267 28.7148C52.2718 28.3795 51.2254 28.3929 50.28 28.752C49.1097 29.1966 48.2034 29.5238 47.6595 29.6983C47.4121 29.7776 47.1518 29.8178 46.8861 29.8178H43.0093C42.9717 29.8178 42.9341 29.8202 42.8967 29.825C42.7483 29.8442 39.2516 30.3415 38.3717 34.2856C38.3577 34.3482 38.3506 34.4122 38.3506 34.4765V42.0128C38.3506 42.0193 38.3507 42.0258 38.3508 42.0322C38.3566 42.2941 38.5418 48.4765 42.8135 51.3039L42.8356 51.3196C42.8539 51.3325 42.8723 51.3455 42.8914 51.3583C43.135 51.5228 43.3795 51.7014 43.6187 51.8891C44.8632 52.8663 47.2084 54.4888 49.0584 54.4888C49.0619 54.4888 49.0651 54.4888 49.0687 54.4888C49.1691 54.4999 49.3485 54.5146 49.5918 54.5146C50.6402 54.5146 52.8772 54.2399 55.1178 52.2144C55.4938 51.8746 55.9166 51.5422 56.375 51.2265L56.4404 51.1806C56.4618 51.1655 56.4832 51.1503 56.5053 51.1355C57.9302 50.1785 60.398 47.7091 60.9161 41.9229C60.9184 41.897 60.9197 41.8708 60.9197 41.8446V34.5605C60.9195 34.5288 60.9178 34.4974 60.9144 34.4657ZM59.1661 41.805C58.6884 47.0269 56.4636 49.0512 55.5276 49.6798C55.4944 49.7022 55.4616 49.7253 55.4287 49.7484L55.3801 49.7826C54.8587 50.1419 54.3748 50.5225 53.9419 50.9136C51.5915 53.0385 49.3573 52.7599 49.2477 52.7445C49.1968 52.7369 49.1451 52.7337 49.0936 52.7351C48.1612 52.759 46.48 51.9069 44.7015 50.5102C44.4295 50.2965 44.1507 50.0929 43.8725 49.9053L43.851 49.8901C43.8299 49.8751 43.809 49.8602 43.7842 49.8438C40.3371 47.5622 40.1115 42.223 40.104 42.0002V34.5768C40.7014 32.1059 42.7455 31.6323 43.0787 31.5711H46.8862C47.334 31.5711 47.7742 31.5028 48.195 31.3679C48.9187 31.1358 50.067 30.7086 50.9027 30.3911C51.462 30.1785 52.0812 30.1708 52.6459 30.3692L56.7206 31.7997C58.7576 32.5511 59.1212 34.3394 59.1662 34.6203V41.805H59.1661Z" fill="#159822"/>
<path d="M50.4133 57.4221C50.2766 57.1489 50.0077 56.9664 49.7034 56.9405C49.3995 56.9154 49.1032 57.049 48.9224 57.2953L46.8224 60.1555C46.5361 60.5455 46.6198 61.0938 47.0096 61.3806C47.1659 61.4956 47.3479 61.5512 47.5283 61.5512C47.7973 61.5512 48.0628 61.4278 48.2347 61.1945L50.3348 58.3449C50.4459 58.1942 50.5058 58.0015 50.5058 57.8144C50.5059 57.6784 50.474 57.5439 50.4133 57.4221Z" fill="#159822"/>
<path d="M50.4704 71.5364C50.141 71.192 49.5969 71.1737 49.2453 71.4954L49.0448 71.6787C48.7448 71.9531 48.6728 72.3979 48.8711 72.7529L48.8773 72.764C49.0111 73.0039 49.2499 73.1671 49.5221 73.2049C49.5624 73.2105 49.6027 73.2132 49.6428 73.2132C49.8736 73.2132 50.0971 73.122 50.2627 72.9564L50.4568 72.762C50.7937 72.4251 50.7998 71.8806 50.4704 71.5364Z" fill="#159822"/>
<path d="M50.2156 71.6786L50.0153 71.4954C49.6636 71.1737 49.1194 71.1921 48.79 71.5364C48.4606 71.8809 48.4667 72.4255 48.8037 72.7623L48.9981 72.9567C49.1637 73.1222 49.3871 73.2134 49.6179 73.2134C49.6592 73.2134 49.7006 73.2105 49.742 73.2046C50.015 73.1655 50.2538 73.0002 50.3866 72.7584L50.3928 72.7473C50.587 72.3929 50.5139 71.9514 50.2156 71.6786Z" fill="#159822"/>
<path d="M50.2301 71.6945L50.229 71.6934C50.0936 71.5668 49.9185 71.4834 49.7255 71.4622C49.4672 71.4341 49.2155 71.5216 49.0326 71.692L49.0299 71.6945C48.8527 71.8561 48.7495 72.0834 48.7443 72.3233C48.7392 72.5633 48.8326 72.7947 49.0026 72.9638L49.0118 72.973C49.1829 73.143 49.4063 73.228 49.63 73.228C49.8543 73.228 50.0787 73.1424 50.2498 72.9714L50.2589 72.9622C50.4283 72.7928 50.5211 72.5616 50.5155 72.3222C50.5102 72.0826 50.407 71.8559 50.2301 71.6945Z" fill="#159822"/>
<path d="M49.9145 56.9672C49.5514 56.8509 49.153 56.9857 48.9319 57.2966C48.6847 57.6448 48.7255 58.1192 49.0267 58.4219C49.1963 58.5923 49.4213 58.6796 49.6481 58.6796C49.8242 58.6796 50.0012 58.6269 50.1539 58.5194C50.3873 58.3552 50.5261 58.0878 50.5261 57.8024V57.8003C50.5261 57.4188 50.278 57.0831 49.9145 56.9672Z" fill="#159822"/>
<path d="M50.342 57.2875L50.3345 57.2774C50.1096 56.973 49.7146 56.8476 49.3552 56.966C48.9958 57.0843 48.7529 57.4202 48.7529 57.7986V57.8135C48.7529 58.1363 48.9341 58.4305 49.2185 58.5832C49.3473 58.6524 49.4895 58.6866 49.6315 58.6866C49.8027 58.6866 49.9738 58.6369 50.1209 58.5394C50.3212 58.4068 50.4585 58.1976 50.5003 57.9609C50.5421 57.7243 50.4849 57.4808 50.342 57.2875Z" fill="#159822"/>
<path d="M60.0595 54.533C59.9687 54.2929 59.7772 54.1047 59.5355 54.0182L56.1742 52.8133C56.1469 52.8035 56.1187 52.7949 56.0906 52.788C55.8506 52.7279 55.5964 52.772 55.3909 52.9094L49.1627 57.0712C49.1611 57.0723 49.1593 57.0735 49.1575 57.0746L49.6466 57.8018L49.1466 57.082C48.9639 57.2029 48.8331 57.3881 48.78 57.6006C48.7509 57.7172 48.7461 57.8391 48.7658 57.9577C48.7884 58.0932 48.8425 58.2216 48.9239 58.3325L53.4837 64.5426C53.6494 64.7685 53.9123 64.9006 54.1903 64.9006C54.2093 64.9006 54.2284 64.8998 54.2475 64.8986C54.5462 64.8789 54.8143 64.7086 54.9585 64.4461L60.0077 55.2659C60.1315 55.0409 60.1505 54.7729 60.0595 54.533ZM54.0841 62.3978L50.8793 58.0329L55.9979 54.6126L57.976 55.3218L54.0841 62.3978Z" fill="#159822"/>
<path d="M50.493 57.6618C50.4518 57.4265 50.3164 57.2182 50.1179 57.085L43.869 52.9093C43.6701 52.7763 43.4249 52.7308 43.1913 52.7826C43.1555 52.7905 43.1202 52.8008 43.0857 52.8131L39.7243 54.0181C39.4827 54.1047 39.2912 54.2928 39.2003 54.5329C39.1095 54.773 39.1284 55.0408 39.2521 55.2658L44.3012 64.446C44.4455 64.7083 44.7135 64.8788 45.0122 64.8984C45.0312 64.8996 45.0504 64.9002 45.0695 64.9002C45.3473 64.9002 45.6101 64.7682 45.7761 64.5422L48.2126 61.224C48.2145 61.2215 48.2164 61.2188 48.2183 61.216L50.3361 58.3316C50.4774 58.1391 50.5341 57.8972 50.493 57.6618ZM46.7994 60.1859C46.7972 60.1888 46.7952 60.1916 46.7931 60.1945L45.1755 62.3976L41.2835 55.3216L43.2618 54.6125L48.3803 58.0328L46.7994 60.1859Z" fill="#159822"/>
<path d="M75.5127 69.5008L74.3816 62.6716C74.0252 60.5195 72.5294 58.7213 70.4781 57.9794L59.5371 54.021C59.1997 53.8991 58.8227 53.9948 58.5843 54.2623C58.3459 54.53 58.2944 54.9159 58.4544 55.2368L60.7387 59.8178L58.4972 59.8523C58.1929 59.857 57.9127 60.0191 57.7572 60.2808C57.6016 60.5425 57.593 60.8659 57.7341 61.1356L58.6535 62.891L49.2449 71.4979C49.2353 71.5068 49.2258 71.5156 49.2166 71.5248L49.0224 71.7191C48.7472 71.9944 48.6864 72.4181 48.8732 72.7596L48.8801 72.772C49.0339 73.053 49.3288 73.2279 49.6493 73.2279H72.3518C73.295 73.2279 74.1853 72.8155 74.7956 72.0962C75.4053 71.377 75.6667 70.4309 75.5127 69.5008ZM73.4583 70.9623C73.1821 71.2879 72.7788 71.4748 72.3519 71.4748H51.8678L60.3353 63.7289C60.629 63.4605 60.705 63.0279 60.5202 62.6754L59.9482 61.5833L62.1587 61.5493C62.4599 61.5448 62.7376 61.3856 62.8942 61.1283C63.0507 60.8708 63.0641 60.5512 62.9297 60.2815L61.0018 56.4153L69.8821 59.6279C71.3378 60.1546 72.3993 61.4306 72.6522 62.9579L73.7831 69.7871C73.7831 69.7872 73.7831 69.7872 73.7831 69.7872C73.8528 70.2084 73.7345 70.6366 73.4583 70.9623Z" fill="#159822"/>
<path d="M50.2372 71.7007L50.227 71.6916C49.88 71.3774 49.3471 71.3913 49.017 71.7233L49.0079 71.7325C48.7582 71.9837 48.6842 72.3605 48.8201 72.6873C48.9561 73.0144 49.2756 73.2273 49.6296 73.2273H49.6488C50.0113 73.2273 50.3365 73.0042 50.4667 72.666C50.5973 72.3276 50.506 71.944 50.2372 71.7007Z" fill="#159822"/>
<path d="M50.2095 71.6743C50.0105 71.4951 49.7406 71.4166 49.4763 71.4617C49.2122 71.5063 48.9832 71.6695 48.8544 71.9043L48.8483 71.9153C48.6635 72.2523 48.7196 72.6703 48.9869 72.9466L48.9901 72.9498C49.1618 73.1274 49.3907 73.2169 49.6201 73.2169C49.8313 73.2169 50.0431 73.1409 50.2108 72.9877L50.22 72.9794C50.2996 72.9069 50.3653 72.82 50.4135 72.7236C50.59 72.3709 50.5027 71.938 50.2095 71.6743Z" fill="#159822"/>
<path d="M50.2481 71.7298L50.2444 71.7261C50.2421 71.7238 50.2396 71.7213 50.2374 71.7191L50.043 71.5248C50.0339 71.5156 50.0245 71.5066 50.0149 71.498L40.6063 62.8911L41.5258 61.1357C41.6671 60.8661 41.6582 60.5426 41.5028 60.2809C41.3473 60.0192 41.0671 59.8571 40.7628 59.8524L38.5211 59.8178L40.8054 55.2369C40.9654 54.916 40.9138 54.5301 40.6755 54.2624C40.4372 53.9947 40.0596 53.899 39.7227 54.0212L28.7819 57.9795C26.7305 58.7213 25.2347 60.5195 24.8782 62.6717L23.7473 69.5009C23.5933 70.4314 23.8548 71.3773 24.4647 72.0964C25.0746 72.8155 25.9654 73.2281 26.9082 73.2281H49.6301C49.9851 73.2281 50.3051 73.0138 50.4404 72.6857C50.5758 72.3576 50.4998 71.9801 50.2481 71.7298ZM26.9083 71.4748C26.4813 71.4748 26.0781 71.2881 25.802 70.9624C25.5259 70.6368 25.4076 70.2085 25.4773 69.7872L26.6082 62.958C26.8611 61.4305 27.9225 60.1547 29.3784 59.6281L38.2585 56.4154L36.3307 60.2814C36.1962 60.551 36.2096 60.8707 36.3662 61.1282C36.5227 61.3856 36.8005 61.5447 37.1018 61.5492L39.3122 61.5833L38.7402 62.6754C38.5556 63.0278 38.6315 63.4604 38.925 63.729L47.3925 71.4748H26.9083Z" fill="#159822"/>
<path d="M52.6139 60.9317C52.6772 60.6785 52.6244 60.4105 52.47 60.2002L50.3365 57.2947C50.1123 56.9893 49.717 56.8679 49.3571 56.9859C49.1627 57.0496 49.0026 57.1782 48.896 57.3426L46.8016 60.1845C46.7717 60.225 46.745 60.2685 46.7224 60.3136C46.5789 60.6008 46.6037 60.9433 46.7871 61.2067L47.6789 62.4875L46.7288 68.4765C46.6983 68.6688 46.7328 68.8657 46.8265 69.0363L48.862 72.737C49.016 73.0172 49.3105 73.1912 49.6301 73.1912C49.9498 73.1912 50.2442 73.0172 50.3983 72.737L52.4488 69.0089C52.5199 68.8795 52.5573 68.7342 52.5573 68.5865V68.5859C52.5573 68.54 52.5535 68.494 52.5465 68.4485L51.6007 62.4876L52.4829 61.2208C52.5435 61.1331 52.5882 61.0351 52.6139 60.9317ZM49.6301 70.4955L48.5074 68.4545L49.466 62.4136C49.5014 62.1899 49.4489 61.9612 49.3195 61.7753L48.5848 60.7202L49.6326 59.2986L50.6859 60.733L49.96 61.7753C49.8306 61.9611 49.7782 62.1899 49.8136 62.4136L50.7677 68.427L49.6301 70.4955Z" fill="#159822"/>
</g>
<defs>
<clipPath id="clip0_8214_15159">
<rect width="100" height="100" fill="white"/>
</clipPath>
</defs>
</svg>
