<svg width="101" height="100" viewBox="0 0 101 100" fill="none" xmlns="http://www.w3.org/2000/svg">
<path d="M50.4998 97.4293C76.6944 97.4293 97.9293 76.1944 97.9293 49.9998C97.9293 23.8052 76.6944 2.57031 50.4998 2.57031C24.3052 2.57031 3.07031 23.8052 3.07031 49.9998C3.07031 76.1944 24.3052 97.4293 50.4998 97.4293Z" fill="white" stroke="#D1D1D1"/>
<path d="M50.4998 91.6481C73.5015 91.6481 92.1481 73.0015 92.1481 49.9998C92.1481 26.9981 73.5015 8.35156 50.4998 8.35156C27.4981 8.35156 8.85156 26.9981 8.85156 49.9998C8.85156 73.0015 27.4981 91.6481 50.4998 91.6481Z" stroke="#D1D1D1"/>
<path d="M97.206 49.9995C97.206 75.7948 76.2948 96.706 50.4995 96.706C24.7041 96.706 3.79294 75.7948 3.79294 49.9995C3.79294 24.2041 24.7041 3.29294 50.4995 3.29294C76.2948 3.29294 97.206 24.2041 97.206 49.9995ZM50.4995 98.6786C77.3843 98.6786 99.1786 76.8843 99.1786 49.9995C99.1786 23.1148 77.3843 1.32031 50.4995 1.32031C23.6148 1.32031 1.82031 23.1148 1.82031 49.9995C1.82031 76.8843 23.6148 98.6786 50.4995 98.6786Z" fill="#159822" stroke="#159822"/>
<path d="M45.2643 59.8873L45.5476 59.604C46.0492 59.8604 46.5709 60.0766 47.1084 60.2512V60.6507C47.1084 61.6426 47.9153 62.4495 48.9072 62.4495H51.9759C52.9677 62.4495 53.7747 61.6426 53.7747 60.6507V60.251C54.3102 60.0768 54.8318 59.8604 55.3351 59.6035L55.6188 59.8873C56.3161 60.5846 57.4547 60.586 58.1602 59.8873L60.3322 57.7151C61.0293 57.0179 61.0307 55.8792 60.3322 55.1739L60.0487 54.8906C60.3049 54.3891 60.5214 53.8673 60.6959 53.3296H61.0956C62.0857 53.3296 62.8909 52.5228 62.8909 51.5309V48.4623C62.8909 47.4704 62.0856 46.6635 61.0956 46.6635H60.6958C60.5216 46.1279 60.3049 45.6062 60.0483 45.1031L60.3322 44.8191C61.0293 44.1218 61.0307 42.9831 60.3316 42.2775L58.1602 40.1092C57.8206 39.7696 57.3691 39.5829 56.8883 39.5829C56.8868 39.5829 56.8854 39.5829 56.8841 39.5829C56.4034 39.584 55.9529 39.772 55.6202 40.1079L55.3364 40.3904C54.8327 40.1333 54.3107 39.9166 53.7747 39.7421V39.3424C53.7747 38.3524 52.9678 37.5469 51.9759 37.5469H48.9072C47.9154 37.5469 47.1084 38.3524 47.1084 39.3424V39.7419C46.5706 39.9166 46.0482 40.1333 45.5462 40.3899L45.2671 40.112C44.9288 39.7707 44.4766 39.5828 43.9936 39.5828C43.5106 39.5828 43.0583 39.7707 42.7236 40.1086L40.5479 42.2807C39.8526 42.983 39.8538 44.1216 40.5509 44.8191L40.8348 45.103C40.5781 45.6063 40.3616 46.1277 40.1873 46.6634H39.7876C38.7976 46.6634 37.9922 47.4702 37.9922 48.4621V51.5309C37.9922 52.5226 38.7977 53.3295 39.7876 53.3295H40.1871C40.3617 53.8671 40.5781 54.3889 40.8343 54.8905L40.5479 55.1769C39.8526 55.8791 39.8538 57.0177 40.5509 57.7151L42.7229 59.8871C43.4202 60.5846 44.5591 60.586 45.2643 59.8873ZM41.7938 56.4166L42.5444 55.666C42.8288 55.3816 42.8837 54.9404 42.6779 54.595C42.2409 53.8615 41.9113 53.067 41.6984 52.2335C41.5991 51.8444 41.2486 51.5721 40.8471 51.5721H39.7877C39.7697 51.5721 39.7498 51.5551 39.7498 51.5309V48.4623C39.7498 48.44 39.7707 48.421 39.7877 48.421H40.8471C41.2487 48.421 41.5992 48.1487 41.6984 47.7596C41.9101 46.9316 42.2397 46.1365 42.6788 45.3968C42.8837 45.0513 42.8284 44.611 42.5444 44.327L41.7939 43.5765C41.7817 43.5642 41.7811 43.5335 41.7933 43.5209L43.9687 41.3489C43.9802 41.3371 44.0031 41.3331 44.0229 41.3531L44.7736 42.1005C45.0583 42.3838 45.4987 42.4381 45.8433 42.2326C46.5769 41.7955 47.3716 41.4659 48.2048 41.253C48.5938 41.1537 48.8661 40.8033 48.8661 40.4016V39.3424C48.8661 39.3236 48.8869 39.3044 48.9073 39.3044H51.9761C51.9964 39.3044 52.0173 39.3236 52.0173 39.3424V40.4016C52.0173 40.8033 52.2894 41.1537 52.6784 41.253C53.5064 41.4645 54.3014 41.7944 55.0414 42.2334C55.3861 42.438 55.8256 42.3831 56.1098 42.1005L56.8647 41.3489C56.8672 41.3464 56.8732 41.3401 56.8883 41.3401H56.8884C56.9059 41.3401 56.9144 41.3485 56.9182 41.3521L59.0867 43.5174C59.1026 43.5335 59.1017 43.5641 59.0896 43.5762L58.3389 44.3269C58.0549 44.6109 57.9997 45.0512 58.2047 45.3966C58.6437 46.1365 58.9734 46.9314 59.1851 47.7595C59.2844 48.1486 59.6349 48.4209 60.0364 48.4209H61.0958C61.1129 48.4209 61.1337 48.4399 61.1337 48.4621V51.5309C61.1337 51.5551 61.1137 51.572 61.0958 51.572H60.0364C59.6348 51.572 59.2843 51.8443 59.1851 52.2334C58.9722 53.0669 58.6426 53.8614 58.2054 54.5949C57.9996 54.9404 58.0547 55.3815 58.3391 55.6659L59.0867 56.4135C59.1026 56.4295 59.1017 56.4602 59.0896 56.4724L56.9206 58.6414C56.9043 58.6578 56.8741 58.6565 56.8619 58.6444L56.1113 57.8937C55.8272 57.6097 55.3868 57.5544 55.0414 57.7595C54.3016 58.1985 53.5066 58.5284 52.6787 58.7399C52.2896 58.8393 52.0174 59.1896 52.0174 59.5912V60.6506C52.0174 60.6704 51.9958 60.6919 51.9762 60.6919H48.9074C48.8877 60.6919 48.8662 60.6704 48.8662 60.6506V59.5912C48.8662 59.1896 48.5939 58.8391 48.2048 58.7399C47.3717 58.527 46.5771 58.1975 45.8434 57.7602C45.7038 57.677 45.5484 57.6364 45.3941 57.6364C45.1667 57.6364 44.9417 57.7244 44.7723 57.8939L44.0247 58.6415C44.0083 58.6577 43.9782 58.6566 43.9661 58.6445L41.7938 56.4726C41.7817 56.4605 41.7809 56.4298 41.7938 56.4166Z" fill="#159822"/>
<path d="M45.6113 51.3239L48.5373 53.941C48.6988 54.0856 48.9076 54.1649 49.1231 54.1649C49.1435 54.1649 49.1639 54.1641 49.1843 54.1627C49.4209 54.1462 49.641 54.0345 49.7943 53.8532L55.3538 47.274C55.667 46.9034 55.6204 46.349 55.2496 46.0356C54.879 45.7225 54.3245 45.769 54.0113 46.1397L49.0351 52.0285L46.7829 50.014C46.4213 49.6904 45.8655 49.7215 45.5421 50.0831C45.2186 50.4449 45.2495 51.0004 45.6113 51.3239Z" fill="#159822"/>
<path d="M38.5978 65.7816C33.5949 62.0062 30.7268 56.2547 30.7268 49.9955C30.7268 40.3811 37.6691 32.184 47.0325 30.5314V32.679C47.0325 32.6844 47.0325 32.6899 47.0326 32.6954C47.0495 33.5991 47.4899 34.366 48.2109 34.7469C48.9148 35.1187 49.7539 35.066 50.4555 34.6062C50.4684 34.5977 50.4811 34.5889 50.4935 34.5797L57.608 29.3571C58.3286 28.9091 58.7408 28.2325 58.7408 27.4947C58.7408 26.7567 58.3282 26.08 57.6072 25.6319L50.4931 20.4127C50.4807 20.4036 50.4681 20.3949 50.4552 20.3864C49.754 19.9265 48.9147 19.874 48.2106 20.2459C47.4897 20.6266 47.0494 21.3936 47.0325 22.2974C47.0324 22.3027 47.0324 22.3082 47.0324 22.3136V23.9624C41.6652 24.6679 36.7312 26.975 32.7202 30.6637C32.363 30.9924 32.3397 31.5482 32.6684 31.9055C32.9969 32.2626 33.5525 32.2859 33.91 31.9574C37.8356 28.3471 42.7078 26.1552 47.9998 25.6187C48.4485 25.5734 48.79 25.1955 48.79 24.7446V22.3229C48.7962 22.0681 48.8841 21.8779 49.0316 21.7999C49.1591 21.7325 49.3202 21.7495 49.4762 21.8462L56.5979 27.0707C56.6193 27.0865 56.6412 27.1011 56.664 27.1149C56.861 27.2335 56.9832 27.3789 56.9832 27.4946C56.9832 27.6102 56.8607 27.7557 56.664 27.8744C56.641 27.8884 56.6185 27.9032 56.5969 27.9191L49.4761 33.1464C49.32 33.2431 49.159 33.2601 49.0316 33.1927C48.884 33.1147 48.7961 32.9244 48.79 32.6696V29.5106C48.79 29.2585 48.6817 29.0186 48.4927 28.8519C48.304 28.6851 48.0529 28.607 47.8024 28.6386C37.0658 29.9799 28.9693 39.1614 28.9693 49.9954C28.9693 53.4369 29.7575 56.7254 31.3121 59.7695C32.7941 62.6714 34.9578 65.2432 37.5694 67.2072C37.5893 67.2221 37.6096 67.2361 37.6305 67.2491C38.4086 67.7375 38.8305 68.3998 38.7876 69.0661C38.7568 69.5462 38.4775 69.9646 38.0589 70.1577C37.4616 70.4331 36.6496 70.2398 35.8309 69.627C29.8436 65.1488 26.2636 58.3069 26.0075 50.8539V49.1366C26.1841 43.9612 27.9564 39.0646 31.133 34.9746C31.4307 34.5914 31.3614 34.0394 30.9781 33.7416C30.595 33.444 30.0427 33.5131 29.7451 33.8966C26.337 38.2847 24.4369 43.5394 24.2505 49.0924C24.2501 49.1021 24.25 49.112 24.25 49.1217V50.8687C24.25 50.8785 24.2501 50.8885 24.2505 50.8984C24.5205 58.893 28.3578 66.2323 34.7781 71.0344C35.6645 71.6973 36.599 72.0383 37.4761 72.0383C37.9368 72.0383 38.3815 71.9444 38.795 71.7535C39.8003 71.29 40.4695 70.3032 40.5416 69.1786C40.6262 67.8596 39.9183 66.6234 38.5978 65.7816Z" fill="#159822"/>
<path d="M73.9929 38.273C72.2508 34.7876 69.7013 31.6771 66.6188 29.2761C65.3883 28.251 63.9869 27.9305 62.7722 28.3973C61.7164 28.8031 60.9624 29.7536 60.8044 30.8778C60.6316 32.1086 61.1838 33.3057 62.3227 34.1643C67.3646 37.9351 70.2562 43.7057 70.2562 49.9967C70.2562 59.6142 63.3137 67.8116 53.9503 69.4613V67.3132C53.9503 67.3078 53.9503 67.3023 53.9502 67.297C53.9334 66.396 53.4939 65.6305 52.7746 65.2493C52.0711 64.8766 51.2318 64.9272 50.5293 65.3848C50.5158 65.3937 50.5026 65.403 50.4893 65.4125L43.3751 70.6351C42.6544 71.0831 42.2422 71.7598 42.2422 72.4976C42.2422 73.2353 42.6544 73.9118 43.3749 74.36L50.4893 79.5826C50.5023 79.5922 50.5158 79.6015 50.5293 79.6103C50.9198 79.8648 51.3526 79.9935 51.7809 79.9933C52.1229 79.9933 52.4622 79.9113 52.7746 79.7458C53.4939 79.3645 53.9336 78.5991 53.9502 77.6982C53.9503 77.6928 53.9503 77.6873 53.9503 77.682V76.03C59.1231 75.3503 63.9162 73.1701 67.8569 69.6961C68.2208 69.3751 68.2559 68.8198 67.9349 68.4558C67.6142 68.0917 67.0588 68.0567 66.6947 68.3777C62.8313 71.7837 58.0899 73.857 52.9832 74.3732C52.5344 74.4186 52.1928 74.7965 52.1928 75.2475V77.6723C52.1867 77.9253 52.0989 78.1148 51.9516 78.193C51.8236 78.2607 51.6618 78.2445 51.5058 78.1485L44.3859 72.922C44.3642 72.906 44.3418 72.8911 44.3189 72.8772C44.1219 72.7587 43.9997 72.6133 43.9997 72.4975C43.9997 72.3818 44.1222 72.2363 44.3189 72.1177C44.3419 72.1038 44.3644 72.089 44.3861 72.073L51.5057 66.8466C51.6619 66.7506 51.8237 66.7343 51.9516 66.8021C52.0991 66.8802 52.1868 67.0698 52.1928 67.3227V70.4816C52.1928 70.7336 52.3011 70.9733 52.4899 71.1402C52.6788 71.307 52.9296 71.3847 53.1803 71.3536C63.9171 70.0158 72.0136 60.8343 72.0136 49.9966C72.0136 46.5472 71.2221 43.252 69.6608 40.2023C68.1716 37.293 65.9978 34.7183 63.3779 32.759C62.7579 32.2915 62.4619 31.7102 62.5446 31.1222C62.6138 30.63 62.9424 30.2145 63.4024 30.0376C64.0164 29.8017 64.7624 30.0132 65.5027 30.6336C65.5108 30.6405 65.5191 30.6471 65.5274 30.6536C71.5423 35.3331 74.9921 42.3833 74.9921 49.9966C74.9921 55.6608 73.0157 61.183 69.4268 65.546C69.1184 65.9207 69.1723 66.4745 69.5471 66.7828C69.9219 67.0911 70.4757 67.0373 70.7839 66.6625C74.6309 61.9857 76.7496 56.0671 76.7496 49.9966C76.7497 45.8767 75.8222 41.9322 73.9929 38.273Z" fill="#159822"/>
</svg>
