<svg width="101" height="100" viewBox="0 0 101 100" fill="none" xmlns="http://www.w3.org/2000/svg">
<g clip-path="url(#clip0_8214_15123)">
<path d="M50.5001 92.9611C74.2279 92.9611 93.463 73.7259 93.463 49.9981C93.463 26.2703 74.2279 7.03516 50.5001 7.03516C26.7723 7.03516 7.53711 26.2703 7.53711 49.9981C7.53711 73.7259 26.7723 92.9611 50.5001 92.9611Z" stroke="#D1D1D1"/>
<path d="M98.6479 50.0007C98.6479 76.5926 77.0916 98.1489 50.4997 98.1489C23.9083 98.1489 2.3516 76.5926 2.3516 50.0007C2.3516 23.4092 23.9083 1.85258 50.4997 1.85258C77.0916 1.85258 98.6479 23.4092 98.6479 50.0007ZM50.4997 99.6304C77.9094 99.6304 100.129 77.4104 100.129 50.0007C100.129 22.591 77.9094 0.371094 50.4997 0.371094C23.09 0.371094 0.870117 22.591 0.870117 50.0007C0.870117 77.4104 23.09 99.6304 50.4997 99.6304Z" fill="#159822" stroke="#159822"/>
<path fill-rule="evenodd" clip-rule="evenodd" d="M49.3887 109.628V99.2578H51.6109V109.628H49.3887Z" fill="#159822"/>
<path d="M74.3363 44.8266C74.3357 44.826 74.3352 44.8254 74.3345 44.8247L74.3307 44.8213C74.3303 44.8209 74.3298 44.8204 74.3293 44.8199C74.3292 44.8198 74.329 44.8197 74.3289 44.8195L66.7314 37.729V34.4093C66.7314 33.9897 66.3914 33.6497 65.9718 33.6497C65.5522 33.6497 65.2122 33.9897 65.2122 34.4093V52.3709L52.642 64.1021C51.6488 65.0292 50.0926 65.0292 49.0993 64.1021L36.529 52.3707V30.2341C36.529 29.7276 36.9409 29.3157 37.4472 29.3157H64.2939C64.8002 29.3157 65.2121 29.7276 65.2121 30.2341V31.371C65.2121 31.7906 65.5521 32.1306 65.9717 32.1306C66.3913 32.1306 66.7313 31.7906 66.7313 31.371V30.2341C66.7313 28.8899 65.6379 27.7965 64.2939 27.7965H56.0884L53.6785 25.5474C52.1041 24.078 49.6375 24.0779 48.0627 25.5474L45.6528 27.7965H37.4473C36.1032 27.7965 35.0098 28.8901 35.0098 30.2341V37.7292L27.4126 44.8194C27.4126 44.8195 27.4123 44.8197 27.4121 44.8198C27.4115 44.8203 27.411 44.8209 27.4104 44.8214L27.4069 44.8247C27.4063 44.8252 27.4057 44.826 27.4052 44.8265C26.9063 45.2868 26.6201 45.9392 26.6201 46.618V72.1816C26.6201 74.4505 28.4664 76.2972 30.7356 76.2972H34.2502C34.6698 76.2972 35.0098 75.9572 35.0098 75.5372C35.0098 75.1179 34.6698 74.7779 34.2502 74.7779H30.7355C29.3039 74.7779 28.1392 73.6133 28.1392 72.1816V46.6192L48.0628 65.2128C48.85 65.9477 49.8603 66.315 50.8707 66.315C51.881 66.315 52.8915 65.9475 53.6787 65.2129L73.6018 46.6194V72.1817C73.6018 73.6133 72.4372 74.7779 71.0055 74.7779H37.2887C36.8691 74.7779 36.5291 75.1179 36.5291 75.5379C36.5291 75.9572 36.8691 76.2972 37.2887 76.2972H71.0055C73.2748 76.2972 75.1207 74.4513 75.1207 72.1817V46.6181C75.1207 45.9394 74.8348 45.2871 74.3363 44.8266ZM49.0992 26.6581C50.0925 25.731 51.6487 25.731 52.642 26.6581L53.8617 27.7964H47.8794L49.0992 26.6581ZM35.0097 50.9529L29.0384 45.3802L35.0096 39.8073V50.9529H35.0097ZM66.7314 39.8072L72.7029 45.3802L66.7314 50.9532V39.8072Z" fill="#159822"/>
<path d="M69.328 72.9414C70.672 72.9414 71.7654 71.8479 71.7654 70.5038C71.7654 69.1598 70.672 68.0664 69.328 68.0664H62.6162C61.2722 68.0664 60.1787 69.1598 60.1787 70.5038C60.1787 71.8479 61.2722 72.9414 62.6162 72.9414H69.328ZM61.698 70.5037C61.698 69.9974 62.1099 69.5855 62.6162 69.5855H69.328C69.8343 69.5855 70.2462 69.9974 70.2462 70.5037C70.2462 71.0102 69.8343 71.422 69.328 71.422H62.6162C62.1099 71.4222 61.698 71.0102 61.698 70.5037Z" fill="#159822"/>
<path d="M50.87 47.6836C49.5259 47.6836 48.4326 48.7771 48.4326 50.1211C48.4326 51.4651 49.526 52.5586 50.87 52.5586C52.2141 52.5586 53.3075 51.4651 53.3075 50.1211C53.3077 48.7771 52.2142 47.6836 50.87 47.6836ZM50.87 51.0394C50.3637 51.0394 49.9518 50.6275 49.9518 50.1212C49.9518 49.6149 50.3637 49.2029 50.87 49.2029C51.3764 49.2029 51.7882 49.6149 51.7882 50.1212C51.7884 50.6275 51.3764 51.0394 50.87 51.0394Z" fill="#159822"/>
<path d="M53.308 41.956C55.4817 40.9488 56.8164 38.7059 56.6497 36.2939C56.4523 33.4279 54.1421 31.1178 51.2766 30.92C49.6764 30.8091 48.0877 31.3719 46.918 32.4637C45.7481 33.5556 45.0771 35.0994 45.0771 36.6994C45.0771 38.0434 46.1706 39.1368 47.5146 39.1368C48.8587 39.1368 49.952 38.0434 49.952 36.6994C49.952 36.4382 50.0531 36.206 50.2443 36.0277C50.432 35.8525 50.6804 35.766 50.9408 35.7835C51.3769 35.8136 51.7562 36.193 51.7863 36.6293C51.8138 37.0291 51.5858 37.3994 51.2186 37.55C49.5264 38.2449 48.4329 39.8869 48.4329 41.7332V43.4111C48.4329 44.7551 49.5265 45.8486 50.8705 45.8486C52.2146 45.8486 53.308 44.7551 53.308 43.4111V41.956H53.308ZM52.4934 40.6545C52.0653 40.8302 51.7889 41.2537 51.7889 41.7332V43.4111C51.7889 43.9174 51.3769 44.3294 50.8706 44.3294C50.3642 44.3294 49.9523 43.9174 49.9523 43.4111V41.7332C49.9523 40.5057 50.676 39.4154 51.7958 38.9554C52.7694 38.5557 53.3748 37.5788 53.3021 36.5247C53.2203 35.3408 52.2291 34.3494 51.0445 34.2679C50.9866 34.2639 50.9289 34.2619 50.8717 34.2619C50.2497 34.2619 49.6643 34.4911 49.208 34.9169C48.7083 35.3832 48.433 36.0162 48.433 36.6995C48.433 37.2058 48.0212 37.6177 47.5148 37.6177C47.0085 37.6177 46.5966 37.2058 46.5966 36.6995C46.5966 35.5191 47.0917 34.3801 47.9548 33.5744C48.8178 32.769 49.9905 32.354 51.1721 32.4358C53.2852 32.5814 54.9886 34.2851 55.1343 36.3985C55.2615 38.243 54.2003 39.9535 52.4934 40.6545Z" fill="#159822"/>
</g>
<defs>
<clipPath id="clip0_8214_15123">
<rect width="100" height="100" fill="white" transform="translate(0.5)"/>
</clipPath>
</defs>
</svg>
