<svg width="101" height="100" viewBox="0 0 101 100" fill="none" xmlns="http://www.w3.org/2000/svg">
<path d="M50.4998 97.4293C76.6944 97.4293 97.9293 76.1944 97.9293 49.9998C97.9293 23.8052 76.6944 2.57031 50.4998 2.57031C24.3052 2.57031 3.07031 23.8052 3.07031 49.9998C3.07031 76.1944 24.3052 97.4293 50.4998 97.4293Z" fill="white" stroke="#D1D1D1"/>
<path d="M50.4998 91.6481C73.5015 91.6481 92.1481 73.0015 92.1481 49.9998C92.1481 26.9981 73.5015 8.35156 50.4998 8.35156C27.4981 8.35156 8.85156 26.9981 8.85156 49.9998C8.85156 73.0015 27.4981 91.6481 50.4998 91.6481Z" stroke="#D1D1D1"/>
<path d="M97.206 49.9995C97.206 75.7948 76.2948 96.706 50.4995 96.706C24.7041 96.706 3.79294 75.7948 3.79294 49.9995C3.79294 24.2041 24.7041 3.29294 50.4995 3.29294C76.2948 3.29294 97.206 24.2041 97.206 49.9995ZM50.4995 98.6786C77.3843 98.6786 99.1786 76.8843 99.1786 49.9995C99.1786 23.1148 77.3843 1.32031 50.4995 1.32031C23.6148 1.32031 1.82031 23.1148 1.82031 49.9995C1.82031 76.8843 23.6148 98.6786 50.4995 98.6786Z" fill="#159822" stroke="#159822"/>
<path d="M68.4138 71.3299L66.2668 64.8881C65.5165 62.6391 63.6023 60.9789 61.2689 60.5542L55.0709 59.4264V58.9461C56.1495 58.3201 57.0881 57.4827 57.8356 56.4912H59.708C61.242 56.4912 62.4903 55.2429 62.4903 53.7089V42.5799C62.4903 35.9322 57.0816 30.5234 50.4339 30.5234C43.7861 30.5234 38.3774 35.9322 38.3774 42.5799V49.0718C38.3774 50.8599 39.6489 52.3558 41.3349 52.7046C41.8553 55.3699 43.5209 57.6254 45.7968 58.9461V59.4264L39.5979 60.5542C37.2654 60.9789 35.3503 62.6391 34.6009 64.8881L34.23 66.0019L31.0711 62.8431C30.7095 62.4814 30.7095 61.8926 31.0711 61.5308L34.7345 57.8684L27.8586 50.9926L23.7186 55.1326C22.4925 56.3586 21.8174 57.9889 21.8174 59.7233C21.8174 61.4576 22.4925 63.0871 23.7186 64.3131L36.2526 76.8472C37.4788 78.0732 39.1091 78.7493 40.8434 78.7493C42.5776 78.7493 44.2071 78.0732 45.4045 76.8749L49.9219 72.7359L48.5131 71.3299H68.4138ZM60.6355 53.7089C60.6355 54.2209 60.219 54.6364 59.708 54.6364H58.9281C59.197 54.0233 59.401 53.3769 59.5328 52.7046C59.9296 52.6221 60.2951 52.4643 60.6355 52.2659V53.7089ZM59.708 50.6689V47.4748C60.2599 47.7967 60.6355 48.3883 60.6355 49.0718C60.6355 49.7553 60.2599 50.3471 59.708 50.6689ZM41.1596 50.6689C40.6079 50.3471 40.2323 49.7553 40.2323 49.0718C40.2323 48.3883 40.6079 47.7967 41.1596 47.4748V50.6689ZM41.1596 44.4348V45.4939C40.8295 45.5802 40.5198 45.7099 40.2323 45.8778V42.5799C40.2323 36.9552 44.809 32.3783 50.4339 32.3783C56.0586 32.3783 60.6355 36.9552 60.6355 42.5799V45.8778C60.348 45.7099 60.0383 45.5792 59.708 45.4939V44.4348H58.7806C56.0383 44.4348 53.46 43.3664 51.5199 41.4272L50.4339 40.3412L49.3479 41.4272C47.4076 43.3664 44.8295 44.4348 42.0871 44.4348H41.1596ZM43.0145 50.9267V46.2543C45.7995 46.0448 48.3963 44.8957 50.4339 42.9583C52.4714 44.8957 55.0681 46.0457 57.8533 46.2543V50.9267C57.8533 52.2789 57.4841 53.5439 56.8498 54.6364H50.4339V56.4912H55.325C54.0174 57.6422 52.3081 58.3461 50.4339 58.3461C46.343 58.3461 43.0145 55.0176 43.0145 50.9267ZM53.2161 59.7733V59.8169L50.4339 62.5992L47.6516 59.8169V59.7733C48.5308 60.0497 49.4646 60.2009 50.4339 60.2009C51.403 60.2009 52.3369 60.0497 53.2161 59.7733ZM36.3594 65.4742C36.8945 63.8679 38.2624 62.6817 39.929 62.3776L46.4116 61.1997L50.4339 65.2219L54.4551 61.2007L60.9369 62.3784C62.6034 62.6827 63.9714 63.8679 64.5065 65.4752L65.841 69.4751H46.6584L43.046 65.8628L39.0321 69.4937C38.6825 69.8451 38.0714 69.8451 37.7208 69.4937L35.6953 67.4682L36.3594 65.4742ZM27.8576 53.6153L32.1109 57.8684L31.1036 58.8756L26.8505 54.6224L27.8576 53.6153ZM44.12 75.5376C43.2445 76.4113 42.0796 76.8944 40.8415 76.8944C39.6034 76.8944 38.4386 76.4113 37.5621 75.5358L25.0281 63.0027C24.1526 62.1272 23.6704 60.9623 23.6704 59.7242C23.6704 58.4852 24.1526 57.3203 25.0281 56.4448L25.5383 55.9348L29.7914 60.1879L29.758 60.2213C28.6738 61.3063 28.6738 63.0713 29.758 64.1563L36.4085 70.8068C36.9344 71.3318 37.6326 71.6221 38.3765 71.6221C39.1203 71.6221 39.8186 71.3327 40.3101 70.8393L40.3796 70.7772L44.6523 75.0498L44.12 75.5376ZM46.0211 73.7941L41.7579 69.5307L42.983 68.4234L47.2389 72.6793L46.0211 73.7941Z" fill="#159822"/>
<path d="M76.4019 21.25H63.418C61.884 21.25 60.6357 22.4982 60.6357 24.0322V31.4516C60.6357 32.9856 61.884 34.2339 63.418 34.2339H65.8951L64.9362 39.8271L73.8857 34.2339H76.4019C77.9359 34.2339 79.1841 32.9856 79.1841 31.4516V24.0322C79.1841 22.4982 77.9359 21.25 76.4019 21.25ZM77.3292 31.4516C77.3292 31.9626 76.9129 32.379 76.4019 32.379H73.3535L67.4634 36.06L68.095 32.379H63.418C62.907 32.379 62.4906 31.9626 62.4906 31.4516V24.0322C62.4906 23.5212 62.907 23.1049 63.418 23.1049H76.4019C76.9129 23.1049 77.3292 23.5212 77.3292 24.0322V31.4516Z" fill="#159822"/>
<path d="M75.4747 24.9609H64.3457V26.8157H75.4747V24.9609Z" fill="#159822"/>
<path d="M71.7651 28.6719H64.3457V30.5268H71.7651V28.6719Z" fill="#159822"/>
<path d="M75.474 28.6719H73.6191V30.5268H75.474V28.6719Z" fill="#159822"/>
<path d="M50.4338 24.0312C38.3162 24.0312 27.878 32.4133 25.1644 44.1053L23.4069 41.1755L21.8164 42.1299L25.0763 47.5618L30.5082 44.3019L29.5539 42.7114L27.0405 44.2194C29.6689 33.5234 39.2872 25.8861 50.4338 25.8861C52.8702 25.8861 55.274 26.2479 57.5787 26.9619L58.1277 25.1905C55.645 24.4208 53.0565 24.0312 50.4338 24.0312Z" fill="#159822"/>
<path d="M78.7343 41.7833L73.3024 38.5234L70.0435 43.9562L71.634 44.9106L73.257 42.2053C74.1112 44.7047 74.5479 47.3191 74.5479 49.9983C74.5479 55.5137 72.6375 60.9057 69.1699 65.1802L70.6102 66.3488C74.3458 61.7451 76.4028 55.9376 76.4028 49.9983C76.4028 47.1614 75.9455 44.3912 75.0543 41.7388L77.78 43.3738L78.7343 41.7833Z" fill="#159822"/>
</svg>
