<svg width="101" height="100" viewBox="0 0 101 100" fill="none" xmlns="http://www.w3.org/2000/svg">
<path d="M50.4998 97.4293C76.6944 97.4293 97.9293 76.1944 97.9293 49.9998C97.9293 23.8052 76.6944 2.57031 50.4998 2.57031C24.3052 2.57031 3.07031 23.8052 3.07031 49.9998C3.07031 76.1944 24.3052 97.4293 50.4998 97.4293Z" fill="white" stroke="#D1D1D1"/>
<path d="M50.2733 91.4215C73.2749 91.4215 91.9215 72.7749 91.9215 49.7733C91.9215 26.7716 73.2749 8.125 50.2733 8.125C27.2716 8.125 8.625 26.7716 8.625 49.7733C8.625 72.7749 27.2716 91.4215 50.2733 91.4215Z" stroke="#D1D1D1"/>
<path d="M74.6498 42.2393H71.2229V41.8544C71.2229 40.8964 70.4436 40.1172 69.4855 40.1172H62.7268C62.2611 40.1172 61.8834 40.4947 61.8834 40.9607C61.8834 41.4266 62.2611 41.8042 62.7268 41.8042H69.4855C69.5133 41.8042 69.5359 41.8267 69.5359 41.8544V52.1388C69.5359 52.6048 69.9136 52.9823 70.3794 52.9823C70.8453 52.9823 71.2229 52.6048 71.2229 52.1388V43.9262H74.6498C74.7638 43.9262 74.8566 44.0189 74.8566 44.1331V73.5599C74.8566 75.4902 73.2863 77.0606 71.3561 77.0606H29.6436C27.7134 77.0606 26.1431 75.4902 26.1431 73.5599V44.1331C26.1431 44.0189 26.2358 43.9262 26.3499 43.9262H29.8892V72.7746C29.8892 73.9639 30.8568 74.9317 32.0464 74.9317H69.0657C70.2552 74.9317 71.2228 73.9641 71.2228 72.7746V55.7364C71.2228 55.2706 70.8452 54.8929 70.3793 54.8929C69.9136 54.8929 69.5358 55.2706 69.5358 55.7364V67.8747H55.8891C54.1216 67.8747 52.5264 68.6222 51.3996 69.8161V58.9054C51.3996 58.4396 51.0219 58.0619 50.5561 58.0619C50.0902 58.0619 49.7126 58.4396 49.7126 58.9054V69.8162C48.5857 68.6223 46.9904 67.8748 45.2231 67.8748H41.3903C40.9244 67.8748 40.5468 68.2524 40.5468 68.7183C40.5468 69.1843 40.9244 69.5618 41.3903 69.5618H45.2231C47.4232 69.5618 49.2574 71.1531 49.6387 73.2448H32.0464C31.7871 73.2448 31.5762 73.0339 31.5762 72.7746V69.5618H37.7926C38.2584 69.5618 38.6361 69.1843 38.6361 68.7183C38.6361 68.2524 38.2584 67.8748 37.7926 67.8748H31.5762V41.8544C31.5762 41.8267 31.5988 41.8042 31.6266 41.8042H38.3853C38.8511 41.8042 39.2287 41.4266 39.2287 40.9607C39.2287 40.4947 38.8511 40.1172 38.3853 40.1172H31.6266C30.6686 40.1172 29.8892 40.8966 29.8892 41.8544V42.2393H26.3499C25.3057 42.2393 24.4561 43.0888 24.4561 44.1331V73.5599C24.4561 76.4204 26.7832 78.7474 29.6436 78.7474H71.3558C74.2162 78.7474 76.5433 76.4204 76.5433 73.5599V44.1331C76.5434 43.0888 75.6941 42.2393 74.6498 42.2393ZM55.8891 69.5617H69.5358V72.7746C69.5358 73.0339 69.3249 73.2448 69.0657 73.2448H51.4736C51.8547 71.1529 53.6889 69.5617 55.8891 69.5617Z" fill="#159822"/>
<path d="M39.3101 33.0846C39.7732 33.1276 40.1853 32.7879 40.2291 32.324C40.4703 29.7661 41.6515 27.3979 43.5552 25.6556C45.4708 23.9026 47.957 22.937 50.5561 22.937C56.2763 22.937 60.93 27.5907 60.93 33.3107C60.93 35.4632 60.2767 37.5274 59.0408 39.2805C59.0338 39.2904 59.0271 39.3005 59.0205 39.3106L53.623 47.7136C53.5356 47.8497 53.4891 48.0079 53.4891 48.1696V49.2623C53.4891 49.4841 53.3087 49.6645 53.087 49.6645H53.0318L53.5692 40.5465H54.5301C55.9051 40.5465 57.0236 39.4279 57.0236 38.053V37.9507C57.0236 36.5759 55.9051 35.4573 54.5301 35.4573C53.2118 35.4573 52.1185 36.4881 52.041 37.8041L51.9787 38.8595H49.0208L48.9586 37.8041C48.8811 36.4881 47.7877 35.4573 46.4695 35.4573C45.0945 35.4573 43.976 36.5759 43.976 37.9507V38.053C43.976 39.4279 45.0945 40.5465 46.4695 40.5465H47.4303L47.9673 49.6586C47.7731 49.6302 47.623 49.4643 47.623 49.2623V48.1696C47.623 48.0079 47.5766 47.8497 47.4893 47.7136L42.0916 39.3106C42.0851 39.3005 42.0783 39.2904 42.0713 39.2805C41.2952 38.1795 40.7487 36.956 40.4472 35.6439C40.3427 35.1899 39.8895 34.9065 39.4361 35.0107C38.9821 35.1153 38.6987 35.5679 38.8031 36.0219C39.1526 37.5422 39.7847 38.9604 40.682 40.2373L45.9363 48.4169V49.2621C45.9363 50.1137 46.4492 50.8469 47.182 51.1719V52.5981C47.182 54.0991 48.403 55.3201 49.9038 55.3201H51.209C52.7097 55.3201 53.9308 54.0991 53.9308 52.5981V51.1719C54.6635 50.8469 55.1765 50.1139 55.1765 49.2621V48.4169L60.4307 40.2373C61.8612 38.2015 62.6173 35.8067 62.6173 33.3107C62.6168 26.6604 57.2063 21.25 50.5561 21.25C47.5343 21.25 44.6436 22.3727 42.4163 24.4112C40.2033 26.4367 38.8302 29.1905 38.5497 32.1657C38.5058 32.6296 38.8463 33.041 39.3101 33.0846ZM53.725 37.9032C53.75 37.4776 54.1037 37.1441 54.5301 37.1441C54.9748 37.1441 55.3367 37.5059 55.3367 37.9506V38.053C55.3367 38.4976 54.9748 38.8594 54.5301 38.8594H53.6686L53.725 37.9032ZM46.4695 38.8594C46.0247 38.8594 45.6628 38.4976 45.6628 38.053V37.9506C45.6628 37.5059 46.0247 37.1441 46.4695 37.1441C46.896 37.1441 47.2495 37.4776 47.2746 37.9032L47.331 38.8594H46.4695ZM51.8793 40.5464L51.3421 49.6644H49.6576L49.1203 40.5464H51.8793ZM52.2435 52.5983C52.2435 53.169 51.7792 53.6333 51.2085 53.6333H49.9035C49.3328 53.6333 48.8685 53.169 48.8685 52.5983V51.3513H52.2433V52.5983H52.2435Z" fill="#159822"/>
<path d="M65.3302 27.6543C65.5277 27.6543 65.7262 27.5853 65.8863 27.4447L67.7267 25.8288C68.0767 25.5216 68.1113 24.9885 67.8041 24.6385C67.4968 24.2886 66.9638 24.2538 66.6137 24.5611L64.7733 26.177C64.4232 26.4842 64.3887 27.0173 64.6959 27.3673C64.8627 27.5573 65.0959 27.6543 65.3302 27.6543Z" fill="#159822"/>
<path d="M64.7733 32.743L66.6137 34.359C66.7738 34.4997 66.9722 34.5686 67.1699 34.5686C67.4042 34.5686 67.6373 34.4716 67.804 34.2816C68.1114 33.9316 68.0768 33.3987 67.7268 33.0913L65.8864 31.4753C65.5363 31.1678 65.0035 31.2026 64.6961 31.5527C64.3886 31.9027 64.4231 32.4355 64.7733 32.743Z" fill="#159822"/>
<path d="M33.3847 25.8289L35.225 27.4448C35.3852 27.5854 35.5835 27.6544 35.7812 27.6544C36.0154 27.6544 36.2485 27.5574 36.4154 27.3674C36.7228 27.0174 36.688 26.4843 36.338 26.1771L34.4977 24.5612C34.1477 24.2538 33.6145 24.2886 33.3073 24.6386C32.9999 24.9886 33.0347 25.5216 33.3847 25.8289Z" fill="#159822"/>
<path d="M33.9413 34.5684C34.139 34.5684 34.3373 34.4994 34.4976 34.3588L36.338 32.7428C36.688 32.4354 36.7226 31.9026 36.4152 31.5526C36.108 31.2026 35.575 31.1679 35.2248 31.4752L33.3846 33.0912C33.0346 33.3986 33 33.9314 33.3073 34.2814C33.474 34.4714 33.707 34.5684 33.9413 34.5684Z" fill="#159822"/>
<path d="M43.0933 50.5076C43.0933 50.0417 42.7157 49.6641 42.2499 49.6641H33.9412C33.4753 49.6641 33.0977 50.0417 33.0977 50.5076C33.0977 50.9736 33.4753 51.3511 33.9412 51.3511H42.2499C42.7157 51.3511 43.0933 50.9736 43.0933 50.5076Z" fill="#159822"/>
<path d="M44.8201 53.9531H35.4654C34.9997 53.9531 34.6221 54.3306 34.6221 54.7965C34.6221 55.2625 34.9997 55.64 35.4654 55.64H44.8201C45.2859 55.64 45.6636 55.2625 45.6636 54.7965C45.6636 54.3306 45.2859 53.9531 44.8201 53.9531Z" fill="#159822"/>
<path d="M44.8201 58.0625H35.4654C34.9997 58.0625 34.6221 58.44 34.6221 58.9059C34.6221 59.3719 34.9997 59.7494 35.4654 59.7494H44.8201C45.2859 59.7494 45.6636 59.3719 45.6636 58.9059C45.6636 58.44 45.2859 58.0625 44.8201 58.0625Z" fill="#159822"/>
<path d="M44.8201 62.1719H35.4654C34.9997 62.1719 34.6221 62.5494 34.6221 63.0154C34.6221 63.4813 34.9997 63.8589 35.4654 63.8589H44.8201C45.2859 63.8589 45.6636 63.4813 45.6636 63.0154C45.6636 62.5494 45.2859 62.1719 44.8201 62.1719Z" fill="#159822"/>
<path d="M68.0143 50.5076C68.0143 50.0417 67.6366 49.6641 67.1708 49.6641H58.8621C58.3963 49.6641 58.0186 50.0417 58.0186 50.5076C58.0186 50.9736 58.3963 51.3511 58.8621 51.3511H67.1708C67.6366 51.3511 68.0143 50.9736 68.0143 50.5076Z" fill="#159822"/>
<path d="M65.6482 53.9531H56.2937C55.8278 53.9531 55.4502 54.3306 55.4502 54.7965C55.4502 55.2625 55.8278 55.64 56.2937 55.64H65.6482C66.1141 55.64 66.4917 55.2625 66.4917 54.7965C66.4917 54.3306 66.1141 53.9531 65.6482 53.9531Z" fill="#159822"/>
<path d="M65.6482 58.0625H56.2937C55.8278 58.0625 55.4502 58.44 55.4502 58.9059C55.4502 59.3719 55.8278 59.7494 56.2937 59.7494H65.6482C66.1141 59.7494 66.4917 59.3719 66.4917 58.9059C66.4917 58.44 66.1141 58.0625 65.6482 58.0625Z" fill="#159822"/>
<path d="M65.6482 62.1719H56.2937C55.8278 62.1719 55.4502 62.5494 55.4502 63.0154C55.4502 63.4813 55.8278 63.8589 56.2937 63.8589H65.6482C66.1141 63.8589 66.4917 63.4813 66.4917 63.0154C66.4917 62.5494 66.1141 62.1719 65.6482 62.1719Z" fill="#159822"/>
<path d="M97.206 49.9995C97.206 75.7948 76.2948 96.706 50.4995 96.706C24.7041 96.706 3.79294 75.7948 3.79294 49.9995C3.79294 24.2041 24.7041 3.29294 50.4995 3.29294C76.2948 3.29294 97.206 24.2041 97.206 49.9995ZM50.4995 98.6786C77.3843 98.6786 99.1786 76.8843 99.1786 49.9995C99.1786 23.1148 77.3843 1.32031 50.4995 1.32031C23.6148 1.32031 1.82031 23.1148 1.82031 49.9995C1.82031 76.8843 23.6148 98.6786 50.4995 98.6786Z" fill="#159822" stroke="#159822"/>
</svg>
