<svg width="101" height="100" viewBox="0 0 101 100" fill="none" xmlns="http://www.w3.org/2000/svg">
<g clip-path="url(#clip0_8214_15196)">
<path d="M50.5001 92.9611C74.2279 92.9611 93.463 73.7259 93.463 49.9981C93.463 26.2703 74.2279 7.03516 50.5001 7.03516C26.7723 7.03516 7.53711 26.2703 7.53711 49.9981C7.53711 73.7259 26.7723 92.9611 50.5001 92.9611Z" stroke="#D1D1D1"/>
<path d="M98.6479 50.0007C98.6479 76.5926 77.0916 98.1489 50.4997 98.1489C23.9083 98.1489 2.3516 76.5926 2.3516 50.0007C2.3516 23.4092 23.9083 1.85258 50.4997 1.85258C77.0916 1.85258 98.6479 23.4092 98.6479 50.0007ZM50.4997 99.6304C77.9094 99.6304 100.129 77.4104 100.129 50.0007C100.129 22.591 77.9094 0.371094 50.4997 0.371094C23.09 0.371094 0.870117 22.591 0.870117 50.0007C0.870117 77.4104 23.09 99.6304 50.4997 99.6304Z" fill="#159822" stroke="#159822"/>
<path fill-rule="evenodd" clip-rule="evenodd" d="M49.3887 109.628V99.2578H51.6109V109.628H49.3887Z" fill="#159822"/>
<path d="M53.2129 42.7696C53.2129 42.4764 53.451 42.2383 53.7441 42.2383C54.0371 42.2383 54.2753 42.4764 54.2753 42.7696C54.2753 43.0629 54.0371 43.3009 53.7441 43.3009C53.451 43.3009 53.2129 43.0629 53.2129 42.7696Z" fill="#159822" stroke="#159822"/>
<path d="M31.5742 47.2621V46.92L31.2333 46.8929C29.1063 46.7235 27.4268 44.9388 27.4268 42.7694V37.3594C27.4268 37.066 27.6646 36.8281 27.958 36.8281H72.3182C72.6115 36.8281 72.8494 37.066 72.8494 37.3594V42.7694C72.8494 44.9389 71.1698 46.7235 69.0429 46.8929L68.7019 46.92V47.2621V51.7861C68.7019 55.1033 67.8162 58.3586 66.1414 61.2C64.5156 63.9581 62.1913 66.2635 59.4205 67.8664L59.4224 67.8698L59.4199 67.8667C56.7244 69.4323 53.5081 70.3506 50.1381 70.3506C46.8855 70.3506 43.6873 69.4975 40.8867 67.8841L40.8861 67.8837L40.8773 67.8786L40.8748 67.8772L40.8449 67.86L40.8442 67.8597C35.289 64.6408 31.5742 58.6355 31.5742 51.7861V47.2621ZM40.8952 67.8898C40.8971 67.891 40.8979 67.8915 40.8969 67.8909L40.8952 67.8898ZM58.4284 67.2027L58.6231 67.0978V66.8766V58.9994C58.6231 54.3202 54.8171 50.514 50.1381 50.514C45.4591 50.514 41.6531 54.3202 41.6531 58.9994V66.8766V67.0978L41.8478 67.2027C44.383 68.5683 47.2374 69.288 50.1381 69.288C53.0388 69.288 55.8933 68.5683 58.4284 67.2027ZM59.6856 65.7539V66.4724L60.2708 66.0555C64.8522 62.7923 67.6393 57.4649 67.6393 51.7861V47.2778V46.9074H67.269H33.0071H32.6368V47.2778V51.7861C32.6368 57.4649 35.424 62.7923 40.0053 66.0555L40.5905 66.4724V65.7539V58.9994C40.5905 53.7349 44.8739 49.4514 50.1381 49.4514C55.4022 49.4514 59.6856 53.7349 59.6856 58.9994V65.7539ZM71.4165 42.2381H71.7869V41.8678V38.2611V37.8907H71.4165H28.8596H28.4893V38.2611V42.7694C28.4893 44.4655 29.8685 45.8448 31.5645 45.8448H31.5916H31.6191H31.6473H31.6759H31.7052H31.7351H31.7653H31.7963H31.8278H31.8598H31.8923H31.9254H31.9591H31.9932H32.0279H32.0631H32.0989H32.1352H32.172H32.2093H32.2472H32.2856H32.3245H32.3639H32.4038H32.4442H32.4851H32.5265H32.5685H32.611H32.6539H32.6973H32.7413H32.7856H32.8306H32.8759H32.9219H32.9682H33.0151H33.0624H33.1102H33.1584H33.2071H33.2564H33.306H33.3562H33.4068H33.4578H33.5093H33.5613H33.6137H33.6666H33.7199H33.7736H33.8279H33.8825H33.9376H33.9931H34.0491H34.1055H34.1623H34.2196H34.2773H34.3353H34.3939H34.4528H34.5122H34.5719H34.6321H34.6927H34.7536H34.8151H34.8769H34.9391H35.0017H35.0647H35.1281H35.1919H35.256H35.3206H35.3855H35.4508H35.5165H35.5826H35.6491H35.7159H35.7831H35.8507H35.9186H35.987H36.0556H36.1246H36.194H36.2637H36.3339H36.4043H36.4751H36.5462H36.6176H36.6895H36.7616H36.8342H36.907H36.9802H37.0536H37.1274H37.2016H37.2761H37.3508H37.4259H37.5014H37.5771H37.6532H37.7296H37.8062H37.8832H37.9605H38.038H38.1159H38.1941H38.2725H38.3513H38.4304H38.5097H38.5893H38.6692H38.7494H38.8299H38.9106H38.9916H39.0729H39.1545H39.2362H39.3183H39.4007H39.4833H39.5661H39.6493H39.7326H39.8162H39.9001H39.9842H40.0685H40.1531H40.238H40.3231H40.4084H40.4939H40.5797H40.6657H40.7519H40.8384H40.9251H41.0119H41.0991H41.1864H41.2739H41.3616H41.4496H41.5378H41.6262H41.7147H41.8034H41.8924H41.9816H42.0709H42.1605H42.2502H42.3401H42.4302H42.5204H42.6109H42.7015H42.7923H42.8833H42.9744H43.0657H43.1572H43.2488H43.3406H43.4325H43.5246H43.6169H43.7093H43.8019H43.8945H43.9874H44.0804H44.1735H44.2668H44.3602H44.4537H44.5474H44.6412H44.7351H44.8291H44.9233H45.0176H45.112H45.2065H45.3011H45.3959H45.4908H45.5857H45.6808H45.7759H45.8712H45.9665H46.0619H46.1575H46.2531H46.3488H46.4447H46.5405H46.6365H46.7325H46.8287H46.9249H47.0211H47.1175H47.2139H47.3103H47.4069H47.5034H47.6001H47.6968H47.7936H47.8904H47.9872H48.0842H48.1811H48.2781H48.3751H48.4722H48.5693H48.6665H48.7636H48.8608H48.958H49.0553H49.1525H49.2498H49.3471H49.4445H49.5418H49.6391H49.7365H49.8339H49.9312H50.0285H50.1259H50.2233H50.3206H50.418H50.5153H50.6126H50.7099H50.8073H50.9045H51.0018H51.099H51.1962H51.2933H51.3905H51.4876H51.5847H51.6817H51.7788H51.8757H51.9726H52.0695H52.1663H52.2631H52.3598H52.4565H52.5531H52.6496H52.7461H52.8425H52.9388H53.0351H53.1313H53.2275H53.3236H53.4196H53.5154H53.6113H53.707H53.8027H53.8982H53.9936H54.0891H54.1843H54.2795H54.3746H54.4696H54.5645H54.6592H54.7539H54.8484H54.9428H55.0371H55.1313H55.2254H55.3193H55.4132H55.5068H55.6005H55.6939H55.7871H55.8803H55.9733H56.0662H56.159H56.2516H56.344H56.4363H56.5284H56.6204H56.7122H56.8039H56.8954H56.9868H57.0779H57.1689H57.2597H57.3504H57.4409H57.5312H57.6213H57.7113H57.8011H57.8906H57.98H58.0692H58.1582H58.247H58.3356H58.424H58.5122H58.6002H58.688H58.7756H58.863H58.9502H59.0371H59.1238H59.2103H59.2965H59.3826H59.4685H59.554H59.6394H59.7245H59.8094H59.8941H59.9785H60.0627H60.1466H60.2302H60.3136H60.3968H60.4798H60.5625H60.6448H60.727H60.8088H60.8905H60.9718H61.0528H61.1336H61.2142H61.2945H61.3744H61.4541H61.5335H61.6126H61.6914H61.7699H61.8482H61.9261H62.0038H62.0811H62.1582H62.2349H62.3113H62.3874H62.4633H62.5388H62.6139H62.6888H62.7633H62.8376H62.9114H62.985H63.0582H63.1311H63.2037H63.2759H63.3479H63.4194H63.4906H63.5615H63.632H63.7022H63.7719H63.8414H63.9105H63.9793H64.0476H64.1157H64.1833H64.2506H64.3176H64.3841H64.4502H64.516H64.5814H64.6465H64.7111H64.7753H64.8393H64.9028H64.9658H65.0285H65.0908H65.1527H65.2142H65.2753H65.3359H65.3962H65.4561H65.5155H65.5745H65.6332H65.6913H65.7491H65.8065H65.8634H65.9199H65.9759H66.0316H66.0868H66.1415H66.1958H66.2496H66.3031H66.3561H66.4086H66.4607H66.5122H66.5634H66.6141H66.6644H66.7142H66.7634H66.8123H66.8607H66.9085H66.956H67.0029H67.0494H67.0953H67.1409H67.1859H67.2305H67.2745H67.318H67.361H67.4036H67.4456H67.4872H67.5282H67.5688H67.6088H67.6484H67.6873H67.7259H67.7638H67.8013H67.8382H67.8746H67.9105H67.9459H67.9807H68.015H68.0487H68.0819H68.1146H68.1467H68.1783H68.2094H68.2398H68.2697H68.2991H68.3279H68.3562H68.3839H68.4111H68.4376H68.4636H68.4891H68.5139H68.5382H68.5619H68.5851H68.6076H68.6296H68.651H68.6718H68.692H68.7116C70.0512 45.8448 71.1884 44.9761 71.6105 43.7858L71.7857 43.2917H71.2614H57.3511C57.0528 43.2917 56.8199 43.058 56.8199 42.7694C56.8199 42.476 57.0577 42.2381 57.3511 42.2381H71.4165Z" fill="#159822" stroke="#159822"/>
<path d="M44.1963 58.9959C44.1963 55.7202 46.8618 53.0547 50.1373 53.0547C53.4129 53.0547 56.0784 55.7202 56.0784 58.9959C56.0784 62.2715 53.4129 64.9371 50.1373 64.9371C46.8618 64.9371 44.1963 62.2715 44.1963 58.9959ZM45.2588 58.9959C45.2588 61.6862 47.447 63.8745 50.1373 63.8745C52.8277 63.8745 55.0158 61.6862 55.0158 58.9959C55.0158 56.3054 52.8277 54.1172 50.1373 54.1172C47.447 54.1172 45.2588 56.3054 45.2588 58.9959Z" fill="#159822" stroke="#159822"/>
<path d="M47.8037 58.9987C47.8037 57.7117 48.8513 56.6641 50.1382 56.6641C51.4251 56.6641 52.4728 57.7117 52.4728 58.9987C52.4728 60.2858 51.4251 61.3335 50.1382 61.3335C48.8513 61.3335 47.8037 60.2858 47.8037 58.9987ZM48.8662 58.9987C48.8662 59.7005 49.4365 60.2708 50.1382 60.2708C50.8399 60.2708 51.4102 59.7005 51.4102 58.9987C51.4102 58.297 50.8399 57.7267 50.1382 57.7267C49.4365 57.7267 48.8662 58.297 48.8662 58.9987Z" fill="#159822" stroke="#159822"/>
<path d="M79.0714 69.8956C79.0714 76.4634 73.7477 81.7871 67.1803 81.7871C60.613 81.7871 55.2891 76.4634 55.2891 69.8956C55.2891 63.328 60.613 58.0039 67.1803 58.0039C73.7477 58.0039 79.0714 63.328 79.0714 69.8956Z" fill="white" stroke="#159822" stroke-width="2"/>
<path d="M72.6462 65.0993C72.2451 64.7346 71.6212 64.7632 71.2546 65.1663L65.2425 71.7867L62.338 68.8338C61.9546 68.4455 61.3318 68.4395 60.9444 68.822C60.5561 69.2034 60.5501 69.8273 60.9326 70.2156L64.5684 73.9117C64.7547 74.1007 65.007 74.2067 65.2711 74.2067C65.277 74.2067 65.2839 74.2067 65.2898 74.2074C65.5618 74.2015 65.8181 74.0852 66.0004 73.8841L72.7132 66.492C73.0789 66.0878 73.0493 65.465 72.6462 65.0993Z" fill="#159822"/>
</g>
<defs>
<clipPath id="clip0_8214_15196">
<rect width="100" height="100" fill="white" transform="translate(0.5)"/>
</clipPath>
</defs>
</svg>
