<svg width="100" height="100" viewBox="0 0 100 100" fill="none" xmlns="http://www.w3.org/2000/svg">
<g clip-path="url(#clip0_8211_14963)">
<path d="M49.9998 97.4293C76.1944 97.4293 97.4293 76.1944 97.4293 49.9998C97.4293 23.8052 76.1944 2.57031 49.9998 2.57031C23.8052 2.57031 2.57031 23.8052 2.57031 49.9998C2.57031 76.1944 23.8052 97.4293 49.9998 97.4293Z" fill="white" stroke="#D1D1D1"/>
<path d="M49.9998 91.6481C73.0015 91.6481 91.6481 73.0015 91.6481 49.9998C91.6481 26.9981 73.0015 8.35156 49.9998 8.35156C26.9981 8.35156 8.35156 26.9981 8.35156 49.9998C8.35156 73.0015 26.9981 91.6481 49.9998 91.6481Z" stroke="#D1D1D1"/>
<path d="M96.706 49.9995C96.706 75.7948 75.7948 96.706 49.9995 96.706C24.2041 96.706 3.29294 75.7948 3.29294 49.9995C3.29294 24.2041 24.2041 3.29294 49.9995 3.29294C75.7948 3.29294 96.706 24.2041 96.706 49.9995ZM49.9995 98.6786C76.8843 98.6786 98.6786 76.8843 98.6786 49.9995C98.6786 23.1148 76.8843 1.32031 49.9995 1.32031C23.1148 1.32031 1.32031 23.1148 1.32031 49.9995C1.32031 76.8843 23.1148 98.6786 49.9995 98.6786Z" fill="#159822" stroke="#159822"/>
<path d="M77.6741 51.505C73.807 51.505 70.2173 49.5844 68.0718 46.3656L67.3021 45.2111L66.5323 46.3656C64.387 49.5844 60.7972 51.505 56.9301 51.505H53.4246V66.341C53.4246 69.9269 55.039 73.2972 57.7368 75.5592H38.622V71.8586H50.6491V55.2056H31.2206V62.607H25.6696V25.6004H66.377V42.2534H68.2272V23.75H23.8193V63.9151L37.3137 77.4096H60.5807L67.3021 81.25L75.1197 76.7833C78.8575 74.648 81.1796 70.6457 81.1796 66.341V51.505H77.6741ZM36.7716 74.2511L26.9778 64.4572H36.7716V74.2511ZM33.071 62.607V57.056H48.7988V70.0082H38.622V62.607H33.071ZM79.3292 66.341C79.3292 69.9842 77.3642 73.3694 74.202 75.1772L67.3021 79.1203L60.4022 75.1772C57.24 73.3694 55.275 69.9842 55.275 66.341V53.3554H56.9301C60.9823 53.3554 64.7717 51.5374 67.3021 48.4352C69.8325 51.5374 73.622 53.3554 77.6741 53.3554H79.3292V66.341Z" fill="#159822"/>
<path d="M75.6302 60.7578V66.3421C75.6302 68.6606 74.3794 70.8153 72.3672 71.9652L73.2849 73.5713C75.8726 72.0929 77.4806 69.3229 77.4806 66.3421V60.7578H75.6302Z" fill="#159822"/>
<path d="M29.3711 27.4531V33.0041H62.6771V27.4531H29.3711ZM60.8267 31.1539H31.2213V29.3035H60.8267V31.1539Z" fill="#159822"/>
<path d="M74.9743 55.4766L62.676 67.7748L59.6295 64.7283L58.3213 66.0364L62.676 70.3912L76.2825 56.7848L74.9743 55.4766Z" fill="#159822"/>
<path d="M46.949 58.9062H34.9219V60.7566H46.949V58.9062Z" fill="#159822"/>
<path d="M46.9489 62.6094H40.4727V64.4598H46.9489V62.6094Z" fill="#159822"/>
<path d="M46.9489 66.3086H40.4727V68.159H46.9489V66.3086Z" fill="#159822"/>
<path d="M58.9763 36.7031H29.3711V38.5535H58.9763V36.7031Z" fill="#159822"/>
<path d="M58.9763 40.4023H29.3711V42.2526H58.9763V40.4023Z" fill="#159822"/>
<path d="M58.9763 44.1016H29.3711V45.9518H58.9763V44.1016Z" fill="#159822"/>
<path d="M46.9492 47.8047H29.3711V49.6551H46.9492V47.8047Z" fill="#159822"/>
<path d="M46.9492 51.5039H29.3711V53.3542H46.9492V51.5039Z" fill="#159822"/>
<path d="M62.6765 36.7031H60.8262V38.5535H62.6765V36.7031Z" fill="#159822"/>
<path d="M62.6765 40.4023H60.8262V42.2526H62.6765V40.4023Z" fill="#159822"/>
<path d="M62.6765 44.1055H60.8262V45.9557H62.6765V44.1055Z" fill="#159822"/>
<path d="M50.6501 47.8047H48.7998V49.6551H50.6501V47.8047Z" fill="#159822"/>
<path d="M50.6501 51.5039H48.7998V53.3542H50.6501V51.5039Z" fill="#159822"/>
</g>
<defs>
<clipPath id="clip0_8211_14963">
<rect width="100" height="100" fill="white"/>
</clipPath>
</defs>
</svg>
